<?xml version="1.0" encoding="UTF-8" standalone="no"?>
<svg width="19px" height="37px" viewBox="0 0 19 37" version="1.1" xmlns="http://www.w3.org/2000/svg" xmlns:xlink="http://www.w3.org/1999/xlink">
    <!-- Generator: Sketch 44.1 (41455) - http://www.bohemiancoding.com/sketch -->
    <title>Page 1 Copy 3</title>
    <desc>Created with Sketch.</desc>
    <defs></defs>
    <g id="Page-1" stroke="none" stroke-width="1" fill="none" fill-rule="evenodd">
        <g id="HOME" transform="translate(-53.000000, -499.000000)" fill="#F44E4E">
            <g id="Page-1-Copy-3" transform="translate(53.000000, 499.587542)">
                <path d="M18.8766377,0.0688330827 L18.8766377,5.91409624 C17.7104783,5.91409624 16.5831449,5.87890827 15.4585652,5.92140451 C13.0601594,6.01235188 12.3756087,6.66170526 12.2569275,9.02308872 C12.191942,10.3174647 12.2453623,11.6177955 12.2453623,13.0507579 L18.6943478,13.0507579 C18.4087971,15.2749083 18.1436232,17.3385474 17.8657826,19.5023368 L12.2795072,19.5023368 L12.2795072,35.8652842 L5.57333333,35.8652842 L5.57333333,19.5735248 L0,19.5735248 L0,13.0778256 L5.59398551,13.0778256 C5.59398551,11.0780662 5.50366667,9.19361504 5.61271014,7.32026165 C5.83878261,3.42928421 8.44150725,0.483509774 12.1514638,0.108622556 C14.319942,-0.110354887 16.5302754,0.0688330827 18.8766377,0.0688330827" id="Fill-1"></path>
            </g>
        </g>
    </g>
</svg>