<?xml version="1.0" encoding="UTF-8" standalone="no"?>
<svg width="33px" height="34px" viewBox="0 0 33 34" version="1.1" xmlns="http://www.w3.org/2000/svg" xmlns:xlink="http://www.w3.org/1999/xlink">
    <!-- Generator: Sketch 44.1 (41455) - http://www.bohemiancoding.com/sketch -->
    <title>Page 1 Copy</title>
    <desc>Created with Sketch.</desc>
    <defs>
        <polygon id="path-1" points="32.9764286 0.10558664 32.9764286 10.936534 -1.07755102e-05 10.936534 -1.07755102e-05 0.10558664 32.9764286 0.10558664"></polygon>
    </defs>
    <g id="Page-1" stroke="none" stroke-width="1" fill="none" fill-rule="evenodd">
        <g id="HOME" transform="translate(-170.000000, -500.000000)">
            <g id="Page-1-Copy" transform="translate(170.000000, 500.587542)">
                <g id="Group-3" transform="translate(0.000000, 11.651538)" fill="#F44E4E">
                    <path d="M32.9697343,0.101939271 C32.9697343,0.144024291 32.969869,0.176890688 32.9697343,0.209890688 C32.9542445,5.41974899 32.9388894,10.6294737 32.921918,15.839332 C32.9217833,15.9051984 32.9099302,15.9730688 32.8914771,16.0365304 C32.7205506,16.6239838 32.5234935,17.2008826 32.2328241,17.7438462 C31.7568159,18.6336437 31.0991057,19.3673927 30.3061629,19.9881134 C29.6044078,20.5376235 28.8016322,20.8780445 27.9460567,21.1087773 C27.9351465,21.1117166 27.9239669,21.1139879 27.9134608,21.1178623 C27.637069,21.2204696 27.3520567,21.2430486 27.0574812,21.242915 C19.8761424,21.2391741 12.6948037,21.2401093 5.5134649,21.2386397 C5.44126898,21.2386397 5.3659751,21.2292874 5.29755061,21.2076437 C4.8513098,21.0669595 4.40022,20.9380324 3.96286898,20.7737004 C3.42382408,20.5708907 2.95589755,20.2450324 2.52326082,19.8696073 C2.04132612,19.4512955 1.5930649,19.0005182 1.19329347,18.5033806 C0.731428163,17.9290202 0.433350612,17.27383 0.223766939,16.5748178 C0.217436327,16.5533077 0.212722041,16.5311296 0.204236327,16.5104211 C0.0714281633,16.1822915 0.0493383673,15.841336 0.0485302041,15.4899595 C0.0378893878,10.4035506 0.0205138776,5.3172753 0.00462,0.230866397 L0.00462,0.101939271 L0.100656735,0.101939271 C2.52460776,0.102874494 4.94855878,0.101805668 7.3723751,0.106214575 C8.00866898,0.107417004 8.64496286,0.124117409 9.28112204,0.136676113 C9.39386082,0.138947368 9.50659959,0.152708502 9.6186649,0.167004049 C9.75901592,0.184773279 9.77235061,0.205080972 9.70675469,0.332004049 C9.6229751,0.493797571 9.53313429,0.653052632 9.4381751,0.808566802 C8.90855878,1.67565182 8.54582816,2.60633198 8.35995061,3.60261134 C8.31900367,3.82225506 8.30041592,4.04791093 8.29341184,4.27156275 C8.26862816,5.05127126 8.25717918,5.83111336 8.40184041,6.60347368 C8.5011098,7.13294332 8.68281184,7.6354251 8.90963633,8.12294332 C9.20825265,8.76490688 9.52451388,9.39738462 9.96159551,9.96145749 C10.7983139,11.0415061 11.8474445,11.855417 13.0953833,12.4198907 C13.777069,12.728247 14.486771,12.9493603 15.2254322,13.0736113 C15.9570894,13.1967935 16.691171,13.2179028 17.4295629,13.1189028 C18.3468282,12.9957206 19.2253016,12.7465506 20.0574404,12.3457409 C21.5129424,11.6445911 22.6543384,10.5991457 23.497118,9.23064777 C24.0792649,8.28527126 24.4572159,7.26467611 24.6038976,6.16712551 C24.8642608,4.21772065 24.4724363,2.4047247 23.4136078,0.737089069 C23.3265955,0.600012146 23.2503588,0.455453441 23.1776241,0.310226721 C23.1268445,0.209089069 23.1432771,0.17902834 23.2580363,0.16994332 C23.5198812,0.149101215 23.7823996,0.126923077 24.044918,0.123449393 C24.9356486,0.111959514 25.8266486,0.104076923 26.7175139,0.102874494 C28.7596078,0.100068826 30.8017016,0.101939271 32.8437955,0.101939271 L32.9697343,0.101939271 Z" id="Fill-1"></path>
                </g>
                <g id="Group-6" transform="translate(0.000000, 0.028057)">
                    <mask id="mask-2" fill="white">
                        <use xlink:href="#path-1"></use>
                    </mask>
                    <g id="Clip-5"></g>
                    <path d="M24.4632367,5.46441255 L24.4371061,5.46441255 C24.4371061,5.65239231 24.4377796,5.84023846 24.4368367,6.02821822 C24.4358939,6.21887004 24.4270041,6.40978907 24.4325265,6.60030729 C24.441551,6.91667976 24.4218857,7.2399996 24.4819592,7.54742065 C24.581498,8.05658259 24.8302776,8.25565142 25.2086327,8.31791053 C25.4477143,8.35718988 25.6912408,8.38377692 25.9332857,8.38858664 C26.6257469,8.40234777 27.3186122,8.40555425 28.0113429,8.40568785 C28.3588531,8.40582146 28.7066327,8.40007652 29.0490245,8.32472429 C29.3739061,8.25311296 29.5954776,8.07288219 29.6688857,7.74408462 C29.7071388,7.57240445 29.7460653,7.39631538 29.7472776,7.22182955 C29.7540122,6.21512915 29.7523959,5.20842874 29.7467388,4.20172834 C29.7453918,3.97420202 29.7119878,3.74761093 29.5872612,3.54720607 C29.4473143,3.32208462 29.2825837,3.12488623 28.9938,3.09148543 C28.8480612,3.07465142 28.7012449,3.057283 28.554698,3.05621417 C27.4123592,3.04712915 26.2700204,3.04165142 25.1276816,3.03750972 C25.0902367,3.03737611 25.0447102,3.05501174 25.0162898,3.07959474 C24.8502122,3.22335182 24.6892531,3.37312105 24.5237143,3.51741255 C24.4789959,3.55629109 24.4621592,3.59757449 24.4622939,3.6554247 C24.4637755,4.25837611 24.4632367,4.86146113 24.4632367,5.46441255 M0.000134693878,10.9350644 C0.000134693878,10.8928457 -0.000269387755,10.8598457 0.000269387755,10.8268457 C0.0185877551,9.4719753 0.0301714286,8.11683765 0.0589959184,6.76210081 C0.0695020408,6.2665664 0.111122449,5.77103198 0.156110204,5.27710081 C0.187089796,4.93708057 0.302118367,4.61482955 0.447183673,4.30633968 C0.614204082,3.95108866 0.788497959,3.59891053 0.965755102,3.24846923 C1.1308898,2.92194291 1.3640449,2.64431538 1.617,2.38138421 C1.95494694,2.03000769 2.29935918,1.68544494 2.68485306,1.38457045 C2.73280408,1.34716154 2.79732245,1.33046113 2.85416327,1.3041413 C2.87652245,1.36519798 2.91612245,1.42558664 2.91854694,1.48744494 C2.93713469,1.95532348 2.95720408,2.42346923 2.96030204,2.89174858 C2.96851837,4.10085789 2.9655551,5.31010081 2.97255918,6.51934372 C2.97498367,6.93444899 2.99249388,7.34942065 3.00609796,7.76439231 C3.00852245,7.83947733 3.02576327,7.91416154 3.03546122,7.98911296 C3.04556327,8.06633563 3.09230204,8.10801984 3.16665306,8.1229834 C3.20800408,8.1314004 3.24962449,8.14542874 3.29137959,8.14582955 C3.53894694,8.14796721 3.78651429,8.14689838 4.04216327,8.14689838 C4.04216327,8.09559474 4.04189388,8.06807247 4.04229796,8.0405502 C4.06896735,5.57463522 4.09604082,3.10858664 4.12109388,0.64267166 C4.12176735,0.577206073 4.13644898,0.545274899 4.20433469,0.524432794 C4.43344898,0.45415749 4.65946531,0.373995547 4.88750204,0.300112955 C5.07526531,0.239189879 5.16200816,0.281542105 5.20214694,0.47312915 C5.23420408,0.626104858 5.25427347,0.783623077 5.25898776,0.939805263 C5.27191837,1.36319393 5.2777102,1.7868498 5.27946122,2.21037206 C5.2866,3.86291053 5.2888898,5.51531538 5.29831837,7.16785385 C5.2998,7.43078502 5.32364082,7.694117 5.34640408,7.95651377 C5.35744898,8.08330324 5.39193061,8.11737206 5.52217959,8.13287004 C5.66172245,8.14943684 5.8036898,8.15144089 5.94457959,8.15144089 C6.05139184,8.15144089 6.15806939,8.13808057 6.27767755,8.12979717 C6.29128163,5.45719798 6.30488571,2.78847328 6.3184898,0.114805263 L7.51376327,0.114805263 L7.51376327,0.228768826 C7.51618776,2.38619393 7.51632245,4.54375263 7.52319184,6.70131134 C7.52453878,7.10198745 7.54959184,7.50279717 7.57127755,7.90320607 C7.58084082,8.0815664 7.61882449,8.1148336 7.79406122,8.1395502 C7.87487755,8.15090648 7.9574449,8.15785385 8.03893469,8.156117 C8.19100408,8.15264332 8.34307347,8.14128704 8.51197959,8.13233563 C8.52517959,5.45759879 8.53837959,2.78833968 8.55157959,0.10558664 L8.64492245,0.10558664 C10.4156082,0.109060324 12.1861592,0.112266802 13.9568449,0.116141296 C15.8518531,0.120282996 17.7469959,0.125092713 19.6420041,0.129635223 C22.1452898,0.135780972 24.6484408,0.141926721 27.1515918,0.147938866 C27.1657347,0.147938866 27.1800122,0.149809312 27.1940204,0.148206073 C27.6468612,0.0955663968 28.0532327,0.273926721 28.4698408,0.400983401 C29.3884531,0.681015789 30.1548612,1.20273644 30.8345265,1.86393887 C31.2935633,2.31057449 31.7419592,2.76629514 32.0863714,3.30952591 C32.4760408,3.92423441 32.7397714,4.59251781 32.8455061,5.30889838 C32.9086776,5.73723036 32.9132571,6.17558259 32.9208,6.60992672 C32.9451796,8.01249352 32.958649,9.41519393 32.9762939,10.8178943 C32.976698,10.8538336 32.9762939,10.8896393 32.9762939,10.9350644 L32.8790449,10.9350644 C29.3942449,10.9350644 25.9094449,10.9347972 22.4246449,10.936534 C22.3591837,10.936534 22.3133878,10.9146231 22.2670531,10.8736069 C21.7243714,10.3914328 21.1503061,9.95187814 20.5090286,9.6037081 C19.709351,9.16949757 18.8741143,8.82707247 17.9755714,8.65472429 C17.2915959,8.52365951 16.5998082,8.50148138 15.9058653,8.53394696 C15.3821755,8.55839636 14.8668367,8.63308057 14.3602531,8.77443279 C13.0612653,9.13663117 11.9170408,9.77605628 10.9042776,10.6540968 C10.8365265,10.7127486 10.781302,10.7855623 10.7140898,10.8450158 C10.688498,10.8675947 10.6460694,10.8809551 10.6109143,10.8817567 C9.9549551,10.8960522 9.29899592,10.9167607 8.64303673,10.9187648 C5.78900816,10.9271818 2.93511429,10.9301211 0.0812204082,10.9350644 L0.000134693878,10.9350644" id="Fill-4" fill="#F44E4E" mask="url(#mask-2)"></path>
                </g>
                <path d="M21.1198518,16.6819676 C21.0865824,16.3956559 21.076211,16.1045344 21.0155988,15.8239676 C20.8674355,15.137915 20.5597947,14.518664 20.1468233,13.9515182 C19.8910396,13.6002753 19.6135702,13.2664008 19.2369661,13.032996 C18.7148927,12.7096761 18.1602233,12.4519555 17.5737661,12.267583 C17.1264478,12.1270324 16.6647171,12.0466032 16.1946355,12.095502 C15.3340763,12.1850162 14.5288763,12.4463441 13.8300845,12.9621862 C12.3982886,14.0192551 11.7234722,15.4287692 11.917162,17.2034211 C12.0386559,18.316336 12.5464518,19.2507571 13.370509,20.0151012 C13.8168845,20.4291377 14.3446151,20.7093036 14.9054804,20.9378988 C15.6035988,21.2223401 16.3254233,21.3230769 17.0728396,21.2243441 C17.8469253,21.1221377 18.5540682,20.8423725 19.1774314,20.3767652 C20.4128437,19.4537004 21.0988396,18.2432551 21.1198518,16.6819676 M16.5341988,10.1873806 C17.1450355,10.181502 17.8704967,10.269413 18.5788518,10.4902591 C19.2785865,10.7084332 19.911109,11.0453806 20.4679335,11.517668 C21.0694763,12.0277652 21.625762,12.5808826 22.0711947,13.2348704 C22.4313661,13.7635385 22.6533416,14.3516599 22.8276355,14.9612915 C22.9859008,15.5154777 23.0124355,16.0828907 23.0106845,16.6529757 C23.0081253,17.4834534 22.8957906,18.2938907 22.5765661,19.0706599 C21.995362,20.4849838 21.0471171,21.5802632 19.7075865,22.3336518 C18.6115824,22.9500972 17.4272192,23.2262551 16.1695824,23.1780243 C15.2478722,23.142753 14.3625294,22.9439514 13.527562,22.5462146 C13.1089335,22.3467449 12.7373131,22.0778016 12.3931702,21.7713158 C11.8790437,21.3135911 11.3852559,20.8358259 10.973362,20.2824413 C10.471762,19.6088138 10.174762,18.8488785 10.0315824,18.0282874 C9.92072939,17.3928704 9.88826816,16.7514413 9.93460286,16.1084089 C9.99642735,15.2496073 10.2398192,14.4389028 10.6472682,13.6807045 C11.4352273,12.2148097 12.6082763,11.1725709 14.1734192,10.5714899 C14.8766559,10.3013441 15.5909376,10.179498 16.5341988,10.1873806" id="Fill-7" fill="#F44E4E"></path>
            </g>
        </g>
    </g>
</svg>