<?xml version="1.0" encoding="utf-8"?>
<!-- Generator: Adobe Illustrator 21.0.2, SVG Export Plug-In . SVG Version: 6.00 Build 0)  -->
<svg version="1.1" id="Layer_1" xmlns="http://www.w3.org/2000/svg" xmlns:xlink="http://www.w3.org/1999/xlink" x="0px" y="0px"
	 viewBox="0 0 996.7 425.3" style="enable-background:new 0 0 996.7 425.3;" xml:space="preserve">
<style type="text/css">
	.st0{fill:#FFFFFF;}
</style>
<g>
	<path class="st0" d="M131.7,11.2c-5.4-0.6-112.6-0.3-114.4,0.3c0.6,0.7,1.1,1.4,1.7,2.1c12.8,15.1,25.5,30.2,38.3,45.2
		c1.2,1.4,1.7,2.8,1.7,4.7c-0.1,29.8,0,59.5,0,89.3c0,2-0.3,3.7-1.1,5.5c-6.3,14.2-12.6,28.5-18.8,42.8c-0.3,0.8-0.6,1.5-1,2.6
		c42.6,0,84.9,0,127.1,0c0.6,0,1.1-0.1,1.7-0.1c0.1,0,0.1-0.1,0.2-0.1c0-0.1,0.1-0.1,0.1-0.3c-0.4-0.6-0.9-1.2-1.4-1.8
		c-8.2-10.2-16.3-20.3-24.6-30.4c-1.6-1.9-2.2-3.8-2.2-6.3c0.1-20.3,0.1-40.6,0-61c0-2.7,0.2-5.3,1.1-7.8c1.1-3.4,2.2-6.9,3.4-10.2
		c2.5-6.6,5.8-12.8,10.5-18.2c5.7-6.6,12.8-10.5,21.6-11c7.5-0.4,13.3,2.4,17.1,8.9c1.1,1.8,1.9,3.9,2.6,5.9
		c1.7,5.1,2.2,10.5,2.2,15.8c0,27.3,0,54.6,0,81.8c0,1.6-0.3,3.1-1,4.6c-4,9.1-8,18.3-12,27.5c-0.3,0.8-0.6,1.6-1,2.5
		c0.9,0,1.4,0.1,2,0.1c39.8,0,79.7-0.1,119.5-0.1c0.1,0,0.2-0.1,0.2-0.1c0-0.1,0.1-0.1,0.1-0.4c-0.6-0.7-1.2-1.5-1.9-2.3
		c-8.3-10.3-16.6-20.6-24.9-30.8c-0.9-1.2-1.5-2.3-1.5-3.9c0.1-21.4,0-42.9,0-64.3c0-1.1,0.1-2.3,0.4-3.3c1.5-4.7,2.9-9.5,4.7-14.1
		c2.4-6.3,5.7-12.1,10.3-17.2c5.9-6.5,13.2-10.3,22-10.7c7-0.3,12.5,2.3,16.1,8.4c1,1.6,1.8,3.4,2.4,5.2c1.9,5.3,2.5,10.9,2.5,16.5
		c0,27.6,0,55.2,0,82.8c0,1.4-0.3,2.9-0.9,4.1c-3.9,9.2-8,18.3-12,27.5c-0.3,0.8-0.6,1.6-1,2.5c0.6,0.1,1,0.2,1.4,0.2
		c42.5,0,84.9-0.1,127.4-0.1c0.1,0,0.1-0.1,0.2-0.1c0-0.1,0.1-0.1,0.1-0.3c-0.5-0.6-1-1.3-1.6-2c-10.7-13.3-21.3-26.6-32-39.8
		c-1.1-1.3-1.5-2.6-1.5-4.3c0.1-23.4,0-46.9,0-70.3c0-6.8-0.2-13.6-1-20.4c-1.3-10-3.7-19.6-8.1-28.7c-7.2-14.6-18.2-24.9-33.8-30
		c-9.4-3.1-19.1-3.9-28.9-3.2c-15.1,1.1-28.9,5.9-41.3,14.6c-11.5,8.1-20.4,18.5-27.4,30.7c-0.4,0.7-0.9,1.4-1.5,2.5
		c-0.4-1.2-0.6-1.9-0.9-2.6c-1.2-3.2-2.2-6.5-3.6-9.7c-7-15.7-18.3-26.8-34.8-32.3c-9.3-3.1-18.9-3.9-28.7-3.2
		C187.2,5.5,171,12.4,157,24.5c-10.2,8.9-17.9,19.7-23.8,31.9c-0.3,0.7-0.7,1.3-1.1,2c-0.2,0-0.3-0.1-0.5-0.1
		C131.7,42.7,131.7,27,131.7,11.2z M337.2,341.9c1.7,2.5,3.2,4.8,4.7,7c7.4,10.9,14.8,21.9,22.2,32.8c0.6,0.9,1.2,1.8,1.1,3.1
		c-0.8,9.5-1.4,19-2.1,28.5c-0.1,1.7-0.2,3.4-0.2,5.1c4.3,0.5,122.8,0.3,124.6-0.2c-30.5-42.5-61-84.9-91.4-127.3
		c0.1-0.4,0.1-0.5,0.2-0.5c23.7-21,47.4-42,71.1-63.1c0.2-0.2,0.3-0.4,0.4-0.6c0-0.1,0-0.1,0-0.2c0-0.1-0.1-0.1-0.1-0.2
		c-34.9,0-69.8,0-105.2,0c7.7,11.8,15.2,23.2,22.8,34.8c-18.8,18.1-37.5,36.1-56.2,54.1c-0.3,0.3-0.7,0.6-1.1,0.9c0,0-0.1,0-0.2,0
		c-0.1,0-0.1-0.1-0.5-0.2c0-29.6,0-59.3,0-89c-3.7-0.5-119.8-0.3-121.6,0.2c0.6,0.7,1.1,1.4,1.7,2.1c13,15.5,25.9,31.1,38.9,46.6
		c1,1.2,1.5,2.5,1.5,4.1c0,29.2,0,58.4,0,87.6c0,1.5-0.3,2.8-0.9,4.2c-6.5,14.8-12.9,29.6-19.4,44.4c-0.3,0.8-0.6,1.6-1,2.5
		c43.2,0,86.1,0,129.3,0c-0.4-0.6-0.6-1-0.9-1.4c-2-2.5-4-5-6-7.5c-6.7-8.3-13.4-16.7-20.2-25c-0.9-1.1-1.4-2.2-1.3-3.7
		c0.1-1.8,0-3.7,0-5.5c0-7.6,0-15.2,0-22.8c0-0.9-0.1-1.9,0.8-2.6C331.1,347.3,334,344.7,337.2,341.9z"/>
	<path class="st0" d="M0.5,276.5c0.3-1,0.7-1.9,0.9-2.9c2.3-19,12.2-32.8,28.6-42.1c9.2-5.2,19.2-8.4,29.6-10
		c25.8-4.1,51.3-2.4,76.4,5.2c6.7,2.1,13.3,4.8,19.4,8.2c1.7,0.9,3,0.9,4.7,0.2c11.7-4.6,23.4-9.1,35.1-13.6
		c0.7-0.3,1.5-0.5,2.2-0.8c0.6,1.7,0.7,75.4,0.1,78.2c-0.8-0.5-1.5-0.9-2.2-1.3c-11.9-7.7-23.8-15.6-35.8-23.2
		c-12.5-7.9-25.6-14.9-39.6-19.8c-10-3.5-20.3-5.7-31-5.9c-3.8-0.1-7.5,0.2-11.2,1.3c-1.1,0.3-2.1,0.7-3.1,1.2
		c-5.9,3-7.3,10.5-3,15.5c1.9,2.2,4.2,3.6,6.7,4.9c4.9,2.5,10.1,4.4,15.5,5.8c9,2.4,18.1,4.5,27.2,6.8c15.7,3.9,31.2,8.4,46,14.9
		c8.7,3.8,17,8.2,24.5,14c7.7,5.9,13.9,12.9,17.9,21.8c3.6,8,4.8,16.4,4.7,25c-0.2,13.8-4,26.3-12.7,37.2
		c-6.2,7.7-14,13.3-22.8,17.7c-10.2,5-21.1,7.9-32.3,9.6c-3.3,0.5-6.7,0.7-10,1.1c-0.5,0.1-1.1,0.3-1.6,0.4c-7.5,0-15,0-22.6,0
		c-0.6-0.1-1.2-0.4-1.8-0.4c-3-0.3-6-0.6-9.1-1c-16.9-2.2-32.9-7.1-48.1-15c-1.5-0.8-2.8-0.8-4.3-0.3c-14.8,4.5-29.7,9-44.5,13.4
		c-0.8,0.2-1.6,0.4-2.5,0.6c0-30,0-59.7,0-89.8c1,0.6,1.7,1,2.4,1.5c15.9,10.9,31.8,21.8,47.8,32.5c7.4,5,15.1,9.6,22.9,14
		c8.9,5,18.4,9,28.4,11.5c7.3,1.8,14.6,2.7,22.1,1.7c3.4-0.5,6.7-1.3,9.7-3.3c3.9-2.6,5.4-6.4,4.5-11c-0.6-3-2.1-5.4-4.4-7.2
		c-2-1.6-4.2-3.1-6.5-4.4c-5-2.8-10.3-4.7-15.8-6.2c-9.8-2.7-19.6-5.2-29.4-7.7c-14.1-3.7-28-8-41.1-14.4
		c-7.4-3.6-14.5-7.9-20.8-13.2C10.3,317.3,3.1,305.1,1.3,290c-0.1-1-0.6-2-0.9-2.9C0.5,283.5,0.5,280,0.5,276.5z"/>
	<path class="st0" d="M997.4,70.6c-0.8,0-1.6-0.1-2.4-0.1c-9.6,0-19.2,0-28.8,0c-0.9,0-1.8,0-2.9,0c0.2-0.8,0.3-1.4,0.6-1.9
		c1.1-2.6,2.3-5.1,3.3-7.7c0.5-1.2,0.8-2.4,0.8-3.7c0.1-5.6,0.1-11.2,0-16.8c0-1.6-0.2-3.2-0.7-4.7c-1.3-4.1-5.7-5.3-9.1-2.7
		c-0.8,0.6-1.5,1.4-2.1,2.3c-1.9,3.4-3.3,6.9-3.3,10.9c0.1,4.2,0,8.3,0,12.5c0,1.3,0.3,2.3,1.1,3.3c1.8,2.1,3.5,4.3,5.3,6.5
		c0.4,0.5,0.8,1.1,1.3,1.9c-11.3,0-22.3,0-33.6,0c0.4-1,0.7-1.9,1.1-2.7c3-5.5,4.2-11.3,3.7-17.5c-0.3-3.5,0-7-0.1-10.6
		c0-1.4-0.2-2.9-0.7-4.2c-1.5-4-6.4-5-9.5-2.1c-0.7,0.7-1.4,1.6-1.9,2.5c-1.7,3.4-3,6.8-2.9,10.7c0.1,3.8,0.1,7.5,0,11.3
		c0,1.4,0.4,2.4,1.3,3.5c2,2.4,4,4.8,5.9,7.2c0.4,0.5,0.8,1.1,1.4,1.9c-11.7,0-23.1,0-34.8,0c0.5-1.1,0.8-2,1.2-3
		c1.3-3.1,3.1-6.1,3.8-9.3c0.7-3.1,0.2-6.5,0.2-9.8c0-4.6-0.1-9.1,0-13.7c0-1.6-0.4-2.9-1.5-4.1c-2.5-2.9-5-5.9-7.4-8.8
		c-0.5-0.6-1-1.2-1.5-1.9c1.7-0.6,24.2-0.8,29.3-0.3c0.5,2.1,0.2,4.2,0.3,6.3c0.1,2.1,0,4.2,0,6.8c0.6-0.8,0.9-1.1,1.1-1.5
		c1.5-2.9,3.2-5.5,5.6-7.8c5.5-5.1,11.9-6.7,19.1-4.8c5.1,1.3,8.5,4.6,10.4,9.5c0.3,0.8,0.6,1.6,1,2.7c0.5-0.6,0.8-1.2,1.2-1.6
		c1.8-2.1,3.3-4.5,5.4-6.4c4.8-4.3,10.5-5.6,16.7-4.6c5.8,1,9.7,4.4,11.9,9.7c1.4,3.5,1.9,7.1,1.9,10.8c0,6.6,0,13.3,0,19.9
		c0,1.4,0.3,2.4,1.2,3.5c2.4,2.7,4.7,5.4,7,8.1C997.4,70.2,997.4,70.4,997.4,70.6z"/>
	<path class="st0" d="M614.4,0.5c-1.2,3-2.4,6.1-3.8,9c-1.3,2.7-1.8,5.4-1.7,8.3c0.1,12.8,0.1,25.6,0,38.4c0,1.7,0.4,3,1.5,4.3
		c2.2,2.6,4.4,5.3,6.5,8c0.4,0.5,0.7,1,1.2,1.7c-12.1,0-23.9,0-35.9,0c0.3-0.8,0.5-1.5,0.8-2.1c1.3-3.1,2.7-6.1,4-9.2
		c0.4-0.9,0.7-2,0.7-3c0.1-8.4,0-16.8,0-25.2c0-0.5-0.1-0.9-0.3-1.5c-5.8,13.8-11.1,27.7-16.9,42c-8-16.6-15.9-32.7-23.7-48.9
		c-0.1,0-0.3,0-0.4,0c-0.1,0.5-0.2,1-0.2,1.5c0,11,0,22.1,0,33.1c0,1.2,0.4,2.1,1.1,3c2.2,2.6,4.4,5.3,6.5,8c0.5,0.6,1,1.3,1.5,1.9
		c-1.7,0.6-15.5,0.8-21,0.3c0.2-0.6,0.3-1.2,0.5-1.8c1.4-3.2,2.8-6.3,4.1-9.5c0.4-1.1,0.7-2.3,0.7-3.5c0-13.8,0-27.5,0.1-41.3
		c0-1.5-0.4-2.6-1.4-3.7c-2.3-2.8-4.6-5.6-6.8-8.4c-0.4-0.5-0.7-1.2-1.1-1.8c12.2,0,24.3,0,36.5,0c-0.7,2-1.2,4.1-2,6.1
		c-0.6,1.5-0.4,2.7,0.3,4.1c3.6,7.5,7,15,10.5,22.5c0.3,0.7,0.7,1.3,1.2,2.2c0.3-0.5,0.5-0.7,0.6-1c3.3-7.9,6.5-15.8,9.8-23.7
		c0.7-1.6,0.5-3-0.5-4.5c-1.3-1.9-2.4-3.9-3.6-5.9C593.6,0.5,604,0.5,614.4,0.5z"/>
	<path class="st0" d="M131.7,11.2c0,15.8,0,31.5,0,47.2c0.2,0,0.3,0.1,0.5,0.1c0.4-0.7,0.7-1.3,1.1-2c5.9-12.2,13.6-23,23.8-31.9
		c14-12.2,30.2-19,48.7-20.3c9.8-0.7,19.3,0.2,28.7,3.2c16.5,5.4,27.8,16.6,34.8,32.3c1.4,3.1,2.4,6.4,3.6,9.7
		c0.3,0.7,0.5,1.5,0.9,2.6c0.6-1,1.1-1.7,1.5-2.5c7-12.2,15.9-22.6,27.4-30.7c12.4-8.7,26.2-13.5,41.3-14.6
		c9.8-0.7,19.5,0.1,28.9,3.2c15.6,5.1,26.7,15.4,33.8,30c4.4,9.1,6.8,18.7,8.1,28.7c0.9,6.8,1.1,13.5,1,20.4c0,23.4,0,46.9,0,70.3
		c0,1.7,0.5,3,1.5,4.3c10.7,13.3,21.4,26.5,32,39.8c0.5,0.7,1.1,1.4,1.6,2c-0.1,0.2-0.1,0.3-0.1,0.3c0,0.1-0.1,0.1-0.2,0.1
		c-42.5,0-84.9,0.1-127.4,0.1c-0.4,0-0.8-0.1-1.4-0.2c0.4-1,0.7-1.8,1-2.5c4-9.2,8.1-18.3,12-27.5c0.5-1.3,0.9-2.8,0.9-4.1
		c0.1-27.6,0-55.2,0-82.8c0-5.6-0.6-11.2-2.5-16.5c-0.7-1.8-1.4-3.6-2.4-5.2c-3.7-6-9.1-8.7-16.1-8.4c-8.9,0.4-16.1,4.2-22,10.7
		c-4.6,5.1-7.9,10.9-10.3,17.2c-1.8,4.6-3.2,9.4-4.7,14.1c-0.3,1-0.4,2.2-0.4,3.3c0,21.4,0,42.9,0,64.3c0,1.6,0.5,2.7,1.5,3.9
		c8.3,10.3,16.6,20.5,24.9,30.8c0.6,0.8,1.3,1.6,1.9,2.3c-0.1,0.3-0.1,0.3-0.1,0.4c0,0.1-0.1,0.1-0.2,0.1
		c-39.8,0-79.7,0.1-119.5,0.1c-0.5,0-1.1-0.1-2-0.1c0.4-1,0.7-1.8,1-2.5c4-9.2,8-18.3,12-27.5c0.7-1.5,1-3,1-4.6
		c0-27.3,0-54.6,0-81.8c0-5.4-0.5-10.7-2.2-15.8c-0.7-2-1.5-4.1-2.6-5.9c-3.8-6.5-9.6-9.3-17.1-8.9c-8.8,0.4-15.9,4.4-21.6,11
		c-4.7,5.4-7.9,11.6-10.5,18.2c-1.3,3.4-2.3,6.8-3.4,10.2c-0.9,2.5-1.1,5.1-1.1,7.8c0,20.3,0.1,40.6,0,61c0,2.5,0.6,4.4,2.2,6.3
		c8.3,10.1,16.4,20.3,24.6,30.4c0.5,0.6,1,1.2,1.4,1.8c-0.1,0.2-0.1,0.3-0.1,0.3c0,0.1-0.1,0.1-0.2,0.1c-0.6,0-1.1,0.1-1.7,0.1
		c-42.2,0-84.5,0-127.1,0c0.4-1,0.6-1.8,1-2.6c6.3-14.3,12.5-28.6,18.8-42.8c0.8-1.8,1.1-3.6,1.1-5.5c0-29.8,0-59.5,0-89.3
		c0-1.9-0.5-3.3-1.7-4.7C44.5,43.6,31.8,28.5,19,13.5c-0.6-0.7-1.1-1.3-1.7-2.1C19.1,10.8,126.3,10.6,131.7,11.2z"/>
	<path class="st0" d="M337.2,341.9c-3.2,2.9-6.1,5.5-9.1,8c-0.9,0.8-0.8,1.7-0.8,2.6c0,7.6,0,15.2,0,22.8c0,1.8,0.1,3.7,0,5.5
		c-0.1,1.5,0.4,2.6,1.3,3.7c6.8,8.3,13.5,16.7,20.2,25c2,2.5,4,5,6,7.5c0.3,0.4,0.5,0.8,0.9,1.4c-43.2,0-86.1,0-129.3,0
		c0.4-0.9,0.7-1.7,1-2.5c6.5-14.8,12.9-29.6,19.4-44.4c0.6-1.3,0.9-2.7,0.9-4.2c0-29.2,0-58.4,0-87.6c0-1.6-0.5-2.8-1.5-4.1
		c-13-15.5-26-31-38.9-46.6c-0.6-0.7-1.1-1.3-1.7-2.1c1.8-0.5,117.9-0.7,121.6-0.2c0,29.7,0,59.4,0,89c0.3,0.2,0.4,0.2,0.5,0.2
		c0.1,0,0.2,0,0.2,0c0.4-0.3,0.8-0.6,1.1-0.9c18.7-18,37.3-35.9,56.2-54.1c-7.6-11.6-15.1-23-22.8-34.8c35.3,0,70.2,0,105.2,0
		c0,0,0.1,0.1,0.1,0.2c0,0.1,0,0.2,0,0.2c-0.1,0.2-0.3,0.4-0.4,0.6c-23.7,21-47.4,42-71.1,63.1c-0.1,0-0.1,0.1-0.2,0.5
		c30.4,42.3,60.9,84.8,91.4,127.3c-1.8,0.6-120.3,0.7-124.6,0.2c0.1-1.7,0.1-3.4,0.2-5.1c0.7-9.5,1.4-19,2.1-28.5
		c0.1-1.3-0.4-2.1-1.1-3.1c-7.4-10.9-14.8-21.9-22.2-32.8C340.4,346.6,338.9,344.4,337.2,341.9z"/>
	<path class="st0" d="M561,291.8c7.2-8,14-15.7,21-23.5c-1.9-2.9-3.7-5.8-5.6-8.7c1.8-0.6,19.6-0.7,22.5-0.1
		c-6.7,7.5-13.3,14.8-19.9,22.3c4.3,7.9,8.5,15.7,12.7,23.5c4.2,7.7,8.3,15.4,12.6,23.4c-10.4,0-20.5,0-30.7,0
		c0.6-2.2,1.2-4.3,1.8-6.3c0.3-1,0.4-1.9-0.1-3c-3.6-6.6-7.1-13.2-10.7-19.8c-0.1-0.2-0.3-0.4-0.6-0.7c-2,1.6-3.6,3.2-3.3,6.1
		c0.3,3.3,0.1,6.7,0,10.1c0,1.4,0.3,2.4,1.2,3.5c2.2,2.6,4.4,5.3,6.5,8c0.5,0.6,0.9,1.2,1.6,2.1c-12.1,0-23.8,0-35.9,0
		c0.3-0.9,0.6-1.6,0.9-2.3c1.2-2.8,2.4-5.6,3.7-8.3c0.7-1.4,1-2.8,0.9-4.4c0-13.5,0-27,0-40.6c0-1.6-0.4-2.9-1.5-4.1
		c-2.6-3-5-6.2-7.5-9.2c0.1-0.2,0.1-0.3,0.1-0.3c0-0.1,0.1-0.1,0.2-0.1c0.1,0,0.2-0.1,0.2-0.1c11.2,0,22.4,0,33.6,0
		c0.4,0,0.8,0.1,1.4,0.1c-0.2,0.7-0.4,1.3-0.6,1.8c-1.4,3.2-2.8,6.3-4.1,9.5c-0.4,0.9-0.7,1.8-0.7,2.7c-0.1,5.8,0,11.5,0,17.3
		C560.7,290.8,560.8,291,561,291.8z"/>
	<path class="st0" d="M652.4,166.7c10.8,0,21.1,0,31.7,0c0.2,5.1,0.1,10.1,0.1,15.1c0,5,0,10,0,15.1c0.2,0.1,0.3,0.1,0.5,0.2
		c0.4-0.6,0.9-1.1,1.3-1.7c3.5-4.7,7.9-7.9,13.7-8.9c3.7-0.6,7.4-0.5,10.9,0.8c6.6,2.4,9.7,7.6,10.8,14.1c0.3,2,0.4,4,0.5,6
		c0.1,6.3,0.1,12.6,0,19c0,1.7,0.3,3.1,1.5,4.4c1.8,2,3.3,4.1,5,6.1c0.4,0.5,0.7,1,1.2,1.8c-11.3,0-22.2,0-33.6,0
		c0.4-0.9,0.7-1.7,1-2.5c1.2-2.9,3-5.8,3.6-8.8c0.6-3.1,0.2-6.4,0.2-9.6c0-2.9,0-5.8,0-8.6c0-1.3-0.1-2.6-0.4-3.8
		c-1-4.7-6-6.9-10-4.2c-1.2,0.8-2.2,1.9-3,3.1c-2,3.3-3.3,6.9-3.2,10.9c0.1,3.7,0.1,7.4,0,11c0,1.4,0.4,2.4,1.2,3.5
		c2.4,2.9,4.7,5.8,7.3,8.9c-2,0.7-3.9,0.3-5.8,0.4c-1.9,0.1-3.8,0-5.8,0s-3.8,0-5.8,0c-1.8,0-3.7,0-5.5,0c-1.9,0-3.8,0-5.8,0
		c-1.9,0-3.8,0-6,0c0.2-0.7,0.2-1.2,0.4-1.7c1.2-2.9,2.5-5.7,3.7-8.6c0.5-1.2,0.8-2.5,0.8-3.7c0.1-14.5,0-29,0.1-43.4
		c0-1.5-0.4-2.6-1.3-3.7C658.6,174.3,655.7,170.7,652.4,166.7z"/>
	<path class="st0" d="M533.3,239.6c0-9,0-17.8,0-27.1c0.9,0.8,1.6,1.3,2.2,1.9c3.2,3,6.4,6,9.6,9c3.1,2.9,6.5,5.4,10.4,7.2
		c4.4,2,9,2.9,13.8,2.3c0.7-0.1,1.4-0.2,2.1-0.4c5.1-1.5,7-7.1,3.6-11.2c-1.1-1.4-2.7-2.5-4.3-3.3c-2.1-1-4.3-1.7-6.5-2.4
		c-4.3-1.3-8.8-2.5-13.1-3.9c-5.2-1.6-9.9-4-13.8-8c-6.1-6.3-7.8-13.7-5.2-21.9c2.5-8,8.6-12.3,16.7-13.7c8.3-1.5,16,0.5,23.2,4.8
		c1.5,0.9,2.8,1.1,4.4,0.4c2.7-1.1,5.6-2,8.4-2.9c0.6-0.2,1.2-0.3,2-0.6c0,8.5,0,16.8,0,25.5c-0.6-0.4-1.1-0.7-1.5-1.1
		c-3.7-3.4-7.3-6.9-11-10.3c-3.1-2.8-6.3-5.4-10.1-7.3c-2.9-1.5-5.9-2.5-9.2-2.3c-2.7,0.2-5.1,1-6.2,3.7c-1.2,2.8-0.5,5.5,1.4,7.8
		c1.8,2.1,4.2,3.2,6.7,3.9c3.3,1,6.6,1.9,9.9,3c4.4,1.5,8.8,3.1,12.9,5c2.6,1.2,5,2.9,7.2,4.7c10.2,8.3,9.7,27.6-4.7,34.3
		c-5.3,2.5-11,3.3-16.8,3.1c-6.1-0.3-12.1-1.3-17.8-3.7c-0.9-0.4-1.7-0.3-2.5,0c-3.1,1-6.3,1.9-9.4,2.9
		C535,239.2,534.2,239.4,533.3,239.6z"/>
	<path class="st0" d="M568.2,383.8c11.8,0,23.2,0,34.8,0c-0.2,0.7-0.3,1.3-0.6,1.8c-1.4,3.3-2.8,6.6-4.1,10
		c-0.5,1.2-0.8,2.6-0.8,3.9c-0.1,5.8,0,11.5,0,17.3c0,0.8-0.1,1.5-0.1,2.8c-3.9-3.2-7.4-6.2-11-9.1c-0.4,0.3-0.6,0.5-0.8,0.7
		c-5.1,5.6-11.5,8.2-18.9,8.5c-9.3,0.4-17.8-1.8-24.7-8.4c-5.2-4.9-8.1-11.1-9.4-18c-1.4-7.5-1.5-15,0.6-22.3
		c3.7-13.1,12.7-20.6,25.9-22.9c8.6-1.5,16.9-0.4,24.6,3.9c0.2,0.1,0.4,0.2,0.7,0.3c2.7-1.3,5.4-2.7,8.3-4.1c0,9.4,0,18.4,0,27.9
		c-0.8-0.9-1.3-1.5-1.8-2.1c-2.5-3.1-4.9-6.3-7.5-9.4c-1.9-2.2-4-4.4-6.1-6.4c-1.9-1.8-4.1-3-6.7-3.7c-4.3-1.1-8.1,0.2-10.8,3.7
		c-1.8,2.3-2.9,5-3.5,7.8c-0.6,2.5-1.1,5-1.3,7.6c-0.7,8.8-0.7,17.6,1.6,26.2c0.7,2.6,1.8,5.1,3.4,7.4c4.5,6.3,13.5,6.6,18.8-0.4
		c0.4-0.5,0.5-1.3,0.5-2c0.1-2.4-0.1-4.8,0.1-7.2c0.1-1.5-0.3-2.6-1.4-3.6c-2.7-2.7-5.4-5.5-8-8.3
		C569.4,385.2,568.9,384.6,568.2,383.8z"/>
	<path class="st0" d="M834.9,238.7c-11.8,0-23.2,0-34.7,0c0.2-0.7,0.4-1.3,0.6-1.9c1.2-2.9,2.5-5.7,3.7-8.6c0.4-1,0.7-2.1,0.7-3.2
		c0.1-7.5,0-15,0.1-22.6c0-1.3-0.3-2.3-1.2-3.2c-2.6-3-5.2-6.1-7.7-9.2c-0.5-0.6-1-1.2-1.6-2.1c10,0,19.7,0,29.7,0
		c0,4.3,0,8.5,0,12.7c0.2,0,0.4,0.1,0.5,0.1c0.4-0.8,0.8-1.6,1.3-2.4c3.1-5.4,7.3-9.5,13.4-11.3c4-1.2,8.1-1.2,12.1,0
		c7.2,2.1,10.7,7.5,11.8,14.5c0.4,2.3,0.5,4.6,0.5,6.9c0.1,6.2,0.1,12.3,0,18.5c0,1.4,0.3,2.4,1.2,3.5c2.2,2.6,4.2,5.2,6.3,7.7
		c-0.1,0.2-0.1,0.3-0.2,0.4c0,0.1-0.1,0.2-0.2,0.2c-10.6,0-21.3,0.1-31.9,0.1c-0.3,0-0.6-0.1-1.2-0.2c1-2.2,1.7-4.4,2.8-6.4
		c1.6-3.1,2.2-6.4,2.1-9.9c-0.2-4.3,0-8.6-0.1-13c0-1.4-0.1-2.7-0.4-4c-1-4.5-5.4-6.6-9.4-4.4c-1.2,0.6-2.3,1.6-3,2.6
		c-2.3,3.3-3.7,6.9-3.7,10.9c0,3.9,0,7.8,0,11.8c0,1.3,0.3,2.3,1.2,3.3c2,2.3,3.9,4.7,5.8,7.1C833.7,237.1,834.1,237.8,834.9,238.7z
		"/>
	<path class="st0" d="M943.4,278.1c0,4.1,0,8.2,0,12.3c0.2,0,0.3,0.1,0.5,0.1c0.3-0.5,0.7-0.9,0.9-1.4c1.5-2.8,3.3-5.3,5.6-7.4
		c6-5.3,12.9-6.8,20.5-4.6c6.9,2,10.3,7.2,11.5,14c0.4,2,0.5,4,0.5,6c0.1,6.6,0.1,13.1,0,19.7c0,1.4,0.3,2.6,1.3,3.7
		c2.2,2.5,4.2,5.2,6.3,7.9c-1.7,0.6-29.5,0.8-33.5,0.2c0.7-1.7,1.2-3.3,2.1-4.8c2.3-4.1,3-8.5,2.7-13.1c-0.2-4,0-8-0.1-12
		c0-1.1-0.1-2.2-0.3-3.3c-0.9-5.2-6.2-6.6-10-4.2c-1,0.7-2,1.6-2.7,2.7c-2.1,3.2-3.5,6.6-3.4,10.5c0.1,3.8,0.1,7.5,0,11.3
		c0,1.7,0.4,3,1.5,4.3c2.4,2.7,4.5,5.6,6.8,8.4c-1.8,0.6-28,0.9-34.4,0.3c0.1-0.5,0.2-1,0.4-1.5c1.2-2.9,2.5-5.7,3.7-8.6
		c0.5-1.2,0.8-2.5,0.8-3.7c0.1-7.4,0-14.9,0.1-22.3c0-1.5-0.4-2.6-1.4-3.7c-2.5-2.9-5-5.9-7.4-8.8c-0.5-0.6-1-1.2-1.5-1.9
		C915.8,277.7,940.3,277.6,943.4,278.1z"/>
	<path class="st0" d="M748.8,328.7c-11.3,0-22.3,0-33.6,0c0.5-1.3,0.9-2.6,1.5-3.8c2.7-4.8,3.7-9.9,3.3-15.4c-0.3-3.7,0-7.4-0.1-11
		c0-1.1-0.1-2.2-0.4-3.3c-1-4.4-5.2-6.4-9.3-4.4c-1.2,0.6-2.3,1.5-3.1,2.6c-2.3,3.2-3.7,6.7-3.7,10.7c0,4.1,0,8.2,0,12.2
		c0,1.3,0.3,2.3,1.2,3.3c2.4,2.9,4.7,5.8,7.1,8.7c-0.1,0.2-0.1,0.3-0.1,0.4c0,0.1-0.1,0.2-0.1,0.2c-10.9,0-21.7,0.1-32.6,0.1
		c-0.5,0-0.9-0.1-1.6-0.1c0.8-1.9,1.4-3.7,2.3-5.4c2.4-4.3,3.2-8.9,2.9-13.8c-0.3-5.4-0.1-10.9,0-16.3c0-1.7-0.4-3-1.5-4.3
		c-2.5-2.8-4.9-5.7-7.3-8.6c-0.5-0.6-1-1.2-1.5-1.9c1.7-0.6,25.1-0.8,29.5-0.3c0.1,4.1,0,8.3,0.5,12.5c0.4-0.7,0.8-1.5,1.2-2.2
		c3.2-5.6,7.6-9.8,14.1-11.5c4-1.1,7.9-1,11.8,0.3c6.7,2.1,10,7.1,11.3,13.7c0.4,2.1,0.5,4.3,0.6,6.4c0.1,6.6,0.1,13.1,0,19.7
		c0,1.4,0.3,2.4,1.2,3.5c1.8,2.1,3.4,4.2,5.1,6.3C747.9,327.3,748.2,327.8,748.8,328.7z"/>
	<path class="st0" d="M704.3,418.6c-11.8,0-23.1,0-34.6,0c0.2-0.6,0.2-1.1,0.4-1.6c1.2-2.8,2.5-5.5,3.6-8.4c0.5-1.2,0.8-2.6,0.8-3.9
		c0.1-7.3,0-14.6,0.1-21.8c0-1.6-0.4-2.9-1.5-4.1c-2.5-2.9-5-5.9-7.4-8.8c-0.5-0.6-0.9-1.2-1.6-2.1c10,0,19.7,0,29.7,0
		c0,4.3,0,8.5,0,12.7c0.2,0,0.4,0.1,0.5,0.1c0.4-0.8,0.9-1.6,1.3-2.4c3-5.3,7.2-9.4,13.2-11.2c4.1-1.3,8.2-1.3,12.3-0.1
		c7.2,2.1,10.7,7.5,11.8,14.5c0.4,2.4,0.5,4.8,0.5,7.2c0.1,6.1,0.1,12.2,0,18.2c0,1.4,0.3,2.4,1.2,3.5c1.8,2.1,3.5,4.3,5.3,6.5
		c0.3,0.4,0.6,0.9,1,1.3c-1.9,0.5-30.3,0.6-33.3,0.1c0.7-1.7,1.3-3.5,2.2-5c2.2-4,2.9-8.2,2.7-12.7c-0.2-3.8,0-7.7-0.1-11.5
		c0-1.3-0.1-2.6-0.3-3.8c-1-4.8-5.7-6.9-9.9-4.4c-0.9,0.6-1.8,1.3-2.5,2.2c-2.3,3.2-3.8,6.8-3.8,10.9c0,4,0,8,0,12
		c0,1.3,0.3,2.3,1.2,3.3C699.3,412.3,701.6,415.2,704.3,418.6z"/>
	<path class="st0" d="M847.3,19.5c10.5,0,20.4,0,30.7,0c0,1,0,1.8,0,2.7c0,11.8,0,23.7,0,35.5c0,1.4,0.4,2.6,1.3,3.7
		c2.4,2.8,4.6,5.7,7.3,9c-9.2,0.2-17.8,0-26.6,0.1c0-3.8,0-7.3,0-10.9c-0.1,0-0.3-0.1-0.4-0.1c-0.3,0.4-0.7,0.7-0.9,1.1
		c-5.5,10-17,12.6-25.9,9.8c-6.3-1.9-9.9-6.5-11.2-12.8c-0.4-1.7-0.5-3.5-0.5-5.2c-0.1-6-0.1-12,0-18c0-1.5-0.4-2.6-1.3-3.7
		c-2.6-2.9-5.1-6-7.6-9c-0.5-0.6-1-1.2-1.5-1.9c1.7-0.5,27.1-0.7,31.4-0.2c0,0.8,0.1,1.6,0.1,2.5c0,8.7,0,17.4,0,26.1
		c0,1.6,0.1,3.2,0.5,4.8c0.7,3.4,3.4,5.1,6.8,4.5c2.5-0.4,4.5-1.7,5.9-3.8c1.7-2.5,2.6-5.3,2.7-8.3c0.1-3.9,0-7.8,0-11.8
		c0-1.1-0.4-2-1.1-2.8c-2.6-3-5.2-6.1-7.7-9.2C848.5,21,848,20.4,847.3,19.5z"/>
	<path class="st0" d="M615.5,19.5c10.8,0,21.1,0,31.7,0c0,1,0,1.8,0,2.7c0,8.6,0,17.3,0,25.9c0,1.5,0.1,3,0.4,4.5
		c0.7,3.6,3.4,5.4,7,4.8c2.5-0.4,4.4-1.8,5.8-3.9c1.6-2.4,2.5-5,2.6-7.9c0.1-4.1,0-8.2,0-12.2c0-1-0.4-1.8-1-2.6c-2.5-3-5.1-6-7.6-9
		c-0.6-0.7-1.1-1.4-1.7-2.1c1.7-0.5,27.2-0.7,30.4-0.1c0,0.9,0,1.8,0,2.7c0,11.7,0,23.4,0,35c0,1.6,0.4,2.9,1.5,4.1
		c2,2.3,3.9,4.7,5.8,7.1c0.4,0.5,0.7,1,1.1,1.7c-8.9,0-17.5,0-26.2,0c-0.6-1.7-0.2-3.6-0.3-5.4c-0.1-1.8,0-3.6-0.5-5.5
		c-0.3,0.4-0.6,0.9-0.8,1.3c-4.4,7.5-11.2,10.6-19.7,10.6c-1.5,0-3-0.2-4.5-0.6c-7.1-1.6-11.9-6.7-13-14c-0.3-1.9-0.4-3.8-0.4-5.7
		c-0.1-5.5-0.1-11,0-16.6c0-1.6-0.4-2.9-1.5-4.1c-2.6-2.9-5-5.9-7.4-8.8C616.6,21,616.2,20.4,615.5,19.5z"/>
	<path class="st0" d="M633.8,278c10.4,0,20.3,0,30.5,0c0,1,0,1.8,0,2.7c0,11.8,0,23.5,0,35.3c0,1.5,0.4,2.7,1.4,3.9
		c2,2.4,3.9,4.8,5.9,7.3c0.3,0.4,0.6,0.9,1.1,1.5c-8.9,0-17.6,0-26.5,0c0-3.7,0-7.2,0-10.8c-0.1,0-0.3-0.1-0.4-0.1
		c-0.4,0.6-0.8,1.1-1.1,1.7c-5.5,9.2-17.9,13.1-27.7,8.6c-5.2-2.4-8.1-6.6-9.2-12.1c-0.4-1.7-0.5-3.5-0.5-5.2
		c-0.1-5.8-0.1-11.7,0-17.5c0-1.8-0.5-3.2-1.7-4.5c-2.9-3.4-5.8-6.8-8.7-10.3c1.7-0.6,26.4-0.9,31.3-0.3c0,0.8,0.1,1.6,0.1,2.5
		c0,8.8,0,17.6,0,26.4c0,1.3,0.1,2.6,0.3,3.8c0.7,4.2,3.8,6.1,7.9,4.9c2.2-0.6,3.8-1.9,5-3.8c1.6-2.5,2.4-5.2,2.5-8.2
		c0.1-3.8,0-7.7,0-11.5c0-1.2-0.4-2.1-1.1-3c-2.8-3.3-5.6-6.6-8.4-9.9C634.5,278.9,634.3,278.6,633.8,278z"/>
	<path class="st0" d="M747.1,18.2c0,6.4,0,12.5,0,18.9c-0.8-0.4-1.5-0.6-2.1-0.9c-4.5-2.4-9-4.8-13.6-7.1c-3.7-1.9-7.6-3.5-11.8-3.8
		c-1.2-0.1-2.4,0-3.6,0.1c-1.8,0.3-2.8,1.1-2.9,2.4c-0.2,1.6,0.8,2.6,2.1,3.1c1.7,0.7,3.4,1.4,5.2,1.7c4,0.9,8,1.5,12,2.4
		c3.6,0.8,7,2.1,10.3,3.9c7.2,4,9.9,10.7,8.3,18.5c-0.9,4.5-3.6,7.8-7.5,10.1c-4.4,2.6-9.2,3.6-14.2,3.8c-6.5,0.2-12.9-0.6-19-3.3
		c-1.2-0.5-2.2-0.5-3.4-0.1c-3,1-6.1,1.9-9.2,2.8c-0.6,0.2-1.2,0.3-2,0.5c0-7.1,0-14,0-21.1c0.8,0.4,1.5,0.7,2.2,1.1
		c3.7,2.1,7.3,4.3,11,6.3c5.1,2.9,10.5,5.2,16.4,5.6c1.6,0.1,3.2-0.1,4.7-0.3c1.1-0.2,2.1-0.9,2.3-2.2c0.2-1.3-0.5-2.3-1.5-2.7
		c-1.9-0.8-3.8-1.6-5.8-2.1c-3.8-0.9-7.7-1.5-11.5-2.4c-3.6-0.8-7-2.2-10.2-4.2c-6.9-4.3-9.5-11.2-7.5-19.5c1.1-4.3,3.9-7.3,7.7-9.3
		c3.5-1.9,7.4-2.6,11.3-2.8c7.2-0.3,14.2,0.7,20.7,4c0.9,0.5,1.6,0.5,2.5,0.1c2.1-0.9,4.3-1.7,6.5-2.6
		C745.4,18.7,746.1,18.5,747.1,18.2z"/>
	<path class="st0" d="M805,276.7c0,6.4,0,12.4,0,18.8c-0.9-0.5-1.6-0.8-2.3-1.1c-4.2-2.2-8.5-4.5-12.7-6.7
		c-3.3-1.7-6.7-3.1-10.3-3.7c-1.6-0.3-3.2-0.2-4.8-0.3c-0.5,0-0.9,0.1-1.4,0.3c-1.1,0.3-2.1,0.9-2.3,2.2c-0.2,1.4,0.5,2.3,1.7,2.9
		c1,0.6,2.2,1.1,3.3,1.4c3,0.7,6.1,1.2,9.1,1.9c3.9,1,7.9,2.1,11.8,3.3c1.6,0.5,3.1,1.4,4.5,2.2c5.7,3.4,8.2,8.5,7.9,15.1
		c-0.3,6.5-3.7,10.9-9.3,13.8c-3.5,1.8-7.2,2.6-11.1,2.9c-7.2,0.5-14.2-0.4-20.9-3.3c-1-0.5-1.9-0.5-3-0.1c-3,1-6,1.8-8.9,2.7
		c-0.7,0.2-1.5,0.4-2.5,0.7c0-7.1,0-14,0-21.2c0.8,0.4,1.5,0.7,2.2,1.1c3.7,2.1,7.5,4.3,11.2,6.4c4.6,2.6,9.5,4.6,14.8,5.3
		c1.6,0.2,3.4,0.2,5,0.1c1.5-0.2,3.1-0.6,3.4-2.5c0.3-1.3-0.6-2.6-2.6-3.3c-2.5-0.9-5.2-1.6-7.8-2.2c-3.6-0.9-7.2-1.5-10.7-2.4
		c-3.2-0.8-6.1-2.3-8.9-4.2c-7.7-5.3-8.4-14.4-5.9-20.7c1.6-4,4.7-6.6,8.6-8.2c4.4-1.9,9.1-2.2,13.9-2.1c5.8,0.2,11.4,1.3,16.6,4
		c0.9,0.5,1.6,0.4,2.5,0.1c2.3-1,4.6-1.8,6.9-2.7C803.7,277.1,804.2,276.9,805,276.7z"/>
	<path class="st0" d="M694.8,95.9c4.2,0,9.1,0.5,13.9,2.1c10.4,3.4,16.2,10.7,17.1,21.6c0.3,3.6,0.1,7.2-0.8,10.7
		c-2,8-7.1,13.4-14.7,16.6c-3.5,1.5-7.2,2.3-10.9,2.6c-7.1,0.6-14.2,0.4-21.1-2.1c-10.4-3.8-16.4-12.1-16.4-23.2
		c0-2.6,0.2-5.3,0.7-7.9c1.6-7.5,6-13,12.8-16.5C681.3,96.8,687.6,95.8,694.8,95.9z M704.2,123.2c-0.1,0-0.2,0-0.2,0
		c-0.1-2.2-0.1-4.5-0.4-6.7c-0.2-1.6-0.5-3.2-0.9-4.7c-0.6-2.3-1.5-4.6-3.1-6.4c-3.5-4-9.5-3.7-12.3,0.8c-1.1,1.9-1.9,4.1-2.4,6.2
		c-1.2,5.3-1.2,10.8-0.7,16.2c0.3,3.2,0.6,6.4,1.9,9.3c1.3,3,3.4,5,6.9,5.2c3.6,0.2,6.4-1.3,8.1-4.5c0.7-1.3,1.3-2.8,1.6-4.2
		C703.3,130.6,703.7,126.9,704.2,123.2z"/>
	<path class="st0" d="M625.4,95.9c3.7,0,7.9,0.4,12.1,1.5c12.9,3.4,19.7,12.5,19.3,25.8c-0.1,2.4-0.3,4.8-0.9,7.1
		c-1.7,7.1-6,12.2-12.5,15.6c-4.1,2.1-8.5,3.2-13.1,3.6c-6.8,0.6-13.6,0.4-20.2-1.8c-8.6-2.9-14.4-8.4-16.6-17.4
		c-1.3-5.3-1.2-10.7,0.4-15.9c2.3-7.4,7.2-12.5,14.3-15.5C613.5,96.6,619.1,95.8,625.4,95.9z M635,123c-0.5-3.6-0.8-7.3-1.4-10.9
		c-0.4-2.4-1.4-4.6-2.9-6.5c-3.6-4.4-9.8-4.1-12.7,0.7c-1,1.8-1.7,3.8-2.2,5.8c-1.3,5.7-1.2,11.4-0.7,17.2c0.3,3.1,0.7,6.2,2.1,9.1
		c1.4,2.8,3.5,4.5,6.7,4.7c3.3,0.2,6-1,7.7-4c0.9-1.6,1.7-3.3,2-5.1C634.2,130.4,634.5,126.8,635,123z"/>
	<path class="st0" d="M762.7,239.8c-5.5-0.1-10.9-0.7-16-2.7c-10-4-15.1-11.5-15.6-22.1c-0.1-2.9,0.1-5.9,0.7-8.8
		c1.9-8.6,7.2-14.2,15.2-17.5c6.7-2.8,13.6-3.3,20.7-2.7c4,0.3,7.9,1,11.7,2.5c9.5,3.7,14.6,10.7,15.5,20.9
		c0.3,3.6,0.2,7.2-0.7,10.7c-1.9,7.4-6.4,12.8-13.3,16.1C775.2,238.9,769,239.7,762.7,239.8z M773.2,213.7c-0.3-3.6-0.5-6.6-0.9-9.5
		c-0.4-3.2-1.4-6.3-3.5-8.8c-3.6-4.2-9.7-3.9-12.6,0.9c-1,1.8-1.7,3.8-2.2,5.8c-1.2,5.6-1.2,11.3-0.7,16.9c0.3,3.2,0.7,6.4,2.1,9.3
		c1.4,2.9,3.7,4.6,6.9,4.7c3.2,0.1,5.8-1.1,7.4-4c0.9-1.5,1.6-3.2,1.9-4.9C772.5,220.5,772.8,216.8,773.2,213.7z"/>
	<path class="st0" d="M810.7,44.5c-11.4,0-22.6,0-34,0c0.1,0.8,0.1,1.3,0.2,1.8c2.1,7.5,7,11.8,14.5,13.3c7.2,1.4,13.8,0.1,19.5-4.7
		c1.6,0.5,1.1,1.4,0.6,2.2c-2.9,5-6.9,8.8-12.1,11.2c-5.7,2.6-11.8,3.4-18,3c-4.8-0.3-9.5-1.3-13.8-3.6c-7.9-4.3-12.1-11-12.9-19.8
		c-0.3-3.4-0.2-6.9,0.7-10.2c2.5-9.7,8.8-15.7,18.2-18.7c6.1-1.9,12.4-2.1,18.7-0.7c11.2,2.5,18.1,10.8,18.5,22.3
		C810.7,41.7,810.7,43,810.7,44.5z M792.6,37.7c0.3-2.4,0-4.6-0.6-6.7c-0.5-1.5-1.1-3-2.1-4.3c-2.8-3.7-8.5-3.5-11.2,0.2
		c-2.3,3.2-2.7,6.9-2.7,10.8C781.7,37.7,787,37.7,792.6,37.7z"/>
	<path class="st0" d="M929.2,213c-11.4,0-22.6,0-34,0c1,5.1,3.2,9.1,7.3,11.9c4.7,3.2,10,4,15.6,3.4c4-0.4,7.6-1.9,10.7-4.4
		c0.3-0.2,0.6-0.4,0.9-0.6c1.3,0.6,1,1.3,0.5,2.2c-2.2,4-5.3,7.2-9.1,9.6c-3.4,2.1-7.2,3.4-11.2,4.1c-5.7,1-11.5,0.9-17.1-0.6
		c-12.5-3.2-19.7-12.6-19.7-25.5c0.1-12.8,7.4-22.5,19.8-25.9c2.3-0.6,4.7-1,7.1-1.3c3.8-0.4,7.5-0.1,11.2,0.8
		c10.4,2.4,17.1,10,18,20.7C929.3,209.1,929.2,210.9,929.2,213z M894.7,206.1c5.7,0,11.1,0,16.7,0c0-3.7-0.3-7.2-2.3-10.2
		c-3-4.6-9.5-4.4-12.3,0.4C895.1,199.2,894.7,202.5,894.7,206.1z"/>
	<path class="st0" d="M663.3,393c-11.5,0-22.6,0-34.1,0c1.1,5.3,3.4,9.4,7.7,12.2c4.5,2.9,9.5,3.6,14.7,3.2
		c4.5-0.4,8.5-2.1,11.9-5.1c1.5,0.4,1.2,1.2,0.7,2.1c-2.1,3.7-4.8,6.8-8.3,9.1c-4.8,3.2-10.1,4.7-15.8,5.1c-6,0.4-12,0-17.6-2.5
		c-9.8-4.2-14.8-11.9-15.3-22.4c-0.1-2.8,0.1-5.8,0.8-8.6c2.3-9.9,8.8-15.9,18.2-18.8c6.3-2,12.7-2.1,19.2-0.6
		c10.5,2.5,17.2,10.5,17.9,21.3C663.4,389.5,663.3,391.1,663.3,393z M645.4,386.1c0.1-2.7-0.2-5.3-1-7.7c-0.4-1.2-1-2.4-1.8-3.3
		c-2.7-3.3-7.8-3.5-10.6-0.4c-2.8,3.2-3.2,7.2-3.2,11.4C634.5,386.1,639.9,386.1,645.4,386.1z"/>
	<path class="st0" d="M912.8,302.9c-11.3,0-22.5,0-33.9,0c1.3,6.3,4.3,11,10,13.4c8.1,3.3,16.1,3,23.4-2.3c0.3-0.2,0.7-0.4,1-0.7
		c0.1,0,0.2,0,0.3,0c1.2,0.5,0.8,1.3,0.4,2.1c-1.7,3-3.8,5.5-6.4,7.7c-4.9,4-10.6,5.8-16.8,6.5c-5.7,0.6-11.3,0.2-16.8-1.7
		c-10.1-3.5-16.4-11.7-17.1-22.4c-0.5-8.5,1.7-16,8-22c4.7-4.4,10.5-6.6,16.8-7.4c4.7-0.6,9.4-0.4,14,0.8
		c10.1,2.7,16.5,10.4,17.1,20.9c0.1,1.3,0.1,2.6,0.1,3.8C913,302,912.9,302.3,912.8,302.9z M895.2,296.1c0-3.6-0.3-6.9-2.1-9.9
		c-2.7-4.5-8.9-5-11.9-0.9c-2.3,3.2-2.7,6.9-2.7,10.8C884.1,296.1,889.5,296.1,895.2,296.1z"/>
	<path class="st0" d="M654.4,224c-0.3,0.8-0.6,1.5-1,2.3c-4.5,7.8-11.5,12-20.3,13.2c-5.4,0.8-10.7,0.4-15.9-1.2
		c-11.5-3.6-18.7-12.8-19-24.6c-0.3-11.9,6.4-21.7,17.8-25.8c7.8-2.8,15.7-2.8,23.5-0.1c3.1,1.1,6,2.7,8.3,5c3.3,3.3,4.9,7.3,4,12
		c-0.3,1.4-1,3-1.9,4c-2.8,3-6.5,3.1-10.2,2.3c-3.3-0.7-5.2-3-6-6.2c-0.3-1.1-0.3-2.2-0.5-3.3c-0.3-1.6-0.5-3.2-1-4.7
		c-1.6-4-6-4.8-8.9-1.5c-1.2,1.3-2,3.1-2.5,4.8c-1.5,5.3-1.4,10.6,0.3,15.8c2.5,7.3,7.7,11.2,15.2,12.1c5.9,0.7,11.5-0.4,16.4-3.9
		c0.4-0.3,0.8-0.4,1.2-0.5C654.1,223.7,654.3,223.8,654.4,224z"/>
	<path class="st0" d="M570.6,98c7.2,0,13.9,0,21,0c-6.4,17-13,33.7-19.5,50.6c-6.5,0-12.8,0-19.4,0c-0.3-0.6-0.6-1.3-0.9-2.1
		c-4.4-11.3-8.9-22.6-13.3-33.9c-0.6-1.6-1.4-3-2.6-4.2c-2.6-2.8-5.2-5.7-7.7-8.5c-0.5-0.5-0.9-1.1-1.6-1.9c13,0,25.8,0,38.7,0
		c-0.2,0.6-0.3,1.2-0.6,1.8c-1.3,2.9-2.5,5.9-3.8,8.8c-0.4,0.9-0.4,1.8-0.1,2.7c2.5,6.7,4.9,13.5,7.4,20.3c0.2,0.4,0.4,0.8,0.8,1.6
		c3.3-8.4,6.5-16.5,9.8-24.8C576.3,105.1,573.6,101.7,570.6,98z"/>
	<path class="st0" d="M755.9,111.4c0.3-0.7,0.5-1.4,0.8-2.1c1.3-3.2,2.9-6.3,5.5-8.6c4.3-3.9,9.3-4.8,14.7-2.7
		c5.9,2.3,8.6,8.9,6.3,14.7c-2.2,5.5-8.9,8.4-14.1,4c-0.8-0.7-1.6-1.3-2.5-1.9c-3.1-2.1-5.8-1.3-7.5,2c-1.2,2.3-1.7,4.8-1.8,7.4
		c-0.1,4.2,0,8.3,0,12.5c0,1.1,0.4,2,1.1,2.8c2.1,2.5,4.1,5.1,6.2,7.6c0.3,0.4,0.6,0.9,1.1,1.6c-11.7,0-23,0-34.7,0
		c0.5-1.2,0.9-2.4,1.5-3.4c3.1-5.5,4.1-11.4,3.7-17.7c-0.3-5-0.1-10.1,0-15.1c0-1.3-0.4-2.3-1.2-3.2c-2.6-3-5.2-6.1-7.7-9.2
		c-0.5-0.5-0.9-1.1-1.3-1.7c1.7-0.5,25.5-0.7,29.5-0.2c0,4.4,0,8.8,0,13.2C755.5,111.3,755.7,111.3,755.9,111.4z"/>
	<path class="st0" d="M780.5,367.7c0,3.4,0,6.4,0,9.6c-3.6,0-7,0-10.5,0c-0.1,0.8-0.3,1.3-0.3,1.8c0,7.4,0,14.7,0,22.1
		c0,1.2,0.1,2.4,0.4,3.6c0.9,3.8,3.3,5.6,7.3,5.6c1,0,2.1-0.2,3.1-0.4c0.6-0.1,1.4-0.4,1.7,0.4c0.2,0.5,0,1.2-0.3,1.7
		c-1.6,2.7-3.9,4.7-6.8,5.9c-5.5,2.3-11.1,2.5-16.6,0.5c-6.1-2.2-8.8-7.1-9.6-13.2c-0.3-2.2-0.3-4.5-0.3-6.7c0-6.1,0-12.2,0-18.2
		c0-0.9,0-1.7,0-2.9c-3.1,0-5.8,0-8.7,0c0-3.3,0-6.3,0-9.5c3.1,0,6.1,0,9.2,0c2.2-5.8,4.3-11.5,6.4-17.3c4.7,0,9.3,0,14.2,0
		c0,5.6,0,11.3,0,17.1C773.4,367.7,776.8,367.7,780.5,367.7z"/>
	<path class="st0" d="M841.8,277.8c3.7,0,7.1,0,10.7,0c0.3,3.3,0.1,6.3,0.1,9.6c-3.7,0-7.1,0-10.6,0c-0.1,0.9-0.2,1.6-0.2,2.3
		c0,7,0,14.1,0,21.1c0,1.6,0.2,3.2,0.6,4.7c0.9,3,3,4.6,6.2,4.7c1.3,0,2.7-0.2,4-0.3c0.5,0,1.1,0,1.5,0.3c0.7,0.5,0.2,1.1-0.1,1.7
		c-2.1,3.3-5,5.6-8.7,6.8c-4.3,1.4-8.7,1.5-13,0.4c-6.6-1.7-10.7-6.8-11.5-14.1c-0.2-1.6-0.2-3.2-0.2-4.8c0-6.6,0-13.3,0-19.9
		c0-0.9,0-1.7,0-2.8c-3.1,0-5.8,0-8.7,0c0-3.2,0-6.2,0-9.5c3,0,6,0,9.2,0c2.2-5.8,4.3-11.5,6.4-17.2c4.8,0,9.4,0,14.4,0
		C841.8,266.4,841.8,272,841.8,277.8z"/>
</g>
</svg>
