<?xml version="1.0" encoding="UTF-8" standalone="no"?>
<svg width="31px" height="31px" viewBox="0 0 31 31" version="1.1" xmlns="http://www.w3.org/2000/svg" xmlns:xlink="http://www.w3.org/1999/xlink">
    <!-- Generator: Sketch 44.1 (41455) - http://www.bohemiancoding.com/sketch -->
    <title>004-settings</title>
    <desc>Created with Sketch.</desc>
    <defs></defs>
    <g id="Page-1" stroke="none" stroke-width="1" fill="none" fill-rule="evenodd">
        <g id="HOME" transform="translate(-317.000000, -608.000000)" fill-rule="nonzero" fill="#FFFFFF">
            <g id="004-settings" transform="translate(317.000000, 608.000000)">
                <path d="M29.3949896,12.2382693 L27.2204593,11.8693758 C26.9939457,11.1380605 26.702714,10.4326326 26.3467641,9.75956367 L27.6281837,7.96687056 C28.1718163,7.20319624 28.0876827,6.16123382 27.4210856,5.50110856 L25.4924843,3.57250731 C25.1300626,3.21008559 24.6511482,3.00945929 24.1398747,3.00945929 C23.7386221,3.00945929 23.356785,3.1324238 23.0331942,3.36540919 L21.2340292,4.64682881 C20.5350731,4.27793528 19.8037578,3.97375992 19.0465553,3.74724635 L18.6841336,1.59860334 C18.52881,0.673133612 17.7327766,6.47181628e-05 16.7943633,6.47181628e-05 L14.0697286,6.47181628e-05 C13.1313152,6.47181628e-05 12.3352818,0.673133612 12.1799582,1.59860334 L11.8045929,3.79902088 C11.0797495,4.02553445 10.3743215,4.323238 9.70125261,4.68565971 L7.92150313,3.40424008 C7.59791232,3.1712547 7.20960334,3.04829019 6.80835073,3.04829019 C6.29707724,3.04829019 5.81169102,3.24891649 5.45574113,3.6113382 L3.52066806,5.53993946 C2.8605428,6.20006472 2.76993737,7.24202714 3.31356994,8.00570146 L4.60793319,9.82428184 C4.2519833,10.5038225 3.96722338,11.2092505 3.74718163,11.9405658 L1.59853862,12.3029875 C0.673068894,12.4583111 -2.84217094e-14,13.2543445 -2.84217094e-14,14.1927578 L-2.84217094e-14,16.9173925 C-2.84217094e-14,17.8558058 0.673068894,18.6518392 1.59853862,18.8071628 L3.79895616,19.1825282 C4.02546973,19.9073716 4.32317328,20.6127996 4.68559499,21.2858685 L3.41064718,23.0591461 C2.86701461,23.8228205 2.95114823,24.8647829 3.6177453,25.5249081 L5.54634656,27.4535094 C5.90876827,27.8159311 6.38768267,28.0165574 6.89895616,28.0165574 C7.30020877,28.0165574 7.68204593,27.8935929 8.00563674,27.6606075 L9.82421712,26.3662443 C10.4778706,26.7092505 11.1638831,26.9875386 11.8693111,27.2075804 L12.2317328,29.3821106 C12.3870564,30.3075804 13.1830898,30.9806493 14.1215031,30.9806493 L16.8526096,30.9806493 C17.791023,30.9806493 18.5870564,30.3075804 18.74238,29.3821106 L19.1112735,27.2075804 C19.8425887,26.9810668 20.5480167,26.6898351 21.2210856,26.3338852 L23.0137787,27.6153048 C23.3373695,27.8482902 23.7256785,27.9712547 24.1269311,27.9712547 L24.1269311,27.9712547 C24.6382046,27.9712547 25.117119,27.7706284 25.4795407,27.4082067 L27.408142,25.4796054 C28.0682672,24.8194802 28.1588727,23.7775177 27.6152401,23.0138434 L26.3338205,21.2146785 C26.6897704,20.5351378 26.9874739,19.8297098 27.2075157,19.1048664 L29.3820459,18.7424447 C30.3075157,18.5871211 30.9805846,17.7910877 30.9805846,16.8526743 L30.9805846,14.1280397 C30.9935282,13.1896263 30.3204593,12.3935929 29.3949896,12.2382693 Z M29.2461378,16.8526743 C29.2461378,16.9368079 29.1878914,17.0079979 29.1037578,17.0209415 L26.385595,17.4739687 C26.0425887,17.532215 25.7707724,17.7846159 25.6866388,18.1146785 C25.4407098,19.0660355 25.0653445,19.9785616 24.5605428,20.8263695 C24.3858038,21.1240731 24.3987474,21.4929666 24.5993737,21.7777265 L26.1979123,24.0299186 C26.243215,24.0946367 26.2367432,24.191714 26.1784969,24.2499603 L24.2498956,26.1785616 C24.2045929,26.2238643 24.1592902,26.2303361 24.1269311,26.2303361 C24.0881002,26.2303361 24.0557411,26.2173925 24.0298539,26.197977 L21.7841336,24.5994384 C21.5058455,24.3988121 21.1304802,24.3858685 20.8327766,24.5606075 C19.9849687,25.0654092 19.0724426,25.4407745 18.1210856,25.6867035 C17.7845511,25.7708372 17.5321503,26.0491253 17.4803758,26.3856597 L17.0208768,29.1038225 C17.0079332,29.1879562 16.9367432,29.2462025 16.8526096,29.2462025 L14.1279749,29.2462025 C14.0438413,29.2462025 13.9726514,29.1879562 13.9597077,29.1038225 L13.5066806,26.3856597 C13.4484342,26.0426534 13.1960334,25.7708372 12.8659708,25.6867035 C11.940501,25.4472463 11.0473904,25.0783528 10.2125261,24.5994384 C10.076618,24.5217766 9.92129436,24.4829457 9.77244259,24.4829457 C9.59770355,24.4829457 9.41649269,24.5347203 9.26764092,24.6447411 L7.00250522,26.2562234 C6.97014614,26.2756388 6.93778706,26.2885825 6.90542797,26.2885825 C6.87954071,26.2885825 6.82776618,26.2821106 6.78246347,26.2368079 L4.85386221,24.3082067 C4.79561587,24.2499603 4.78914405,24.1593549 4.83444676,24.0881649 L6.42651357,21.8553883 C6.62713987,21.5706284 6.64008351,21.195263 6.46534447,20.8975595 C5.9605428,20.0562234 5.57223382,19.1436973 5.3263048,18.1923403 C5.23569937,17.8622777 4.96388309,17.6098768 4.62734864,17.5516305 L1.88977035,17.0856597 C1.80563674,17.0727161 1.7473904,17.0015261 1.7473904,16.9173925 L1.7473904,14.1927578 C1.7473904,14.1086242 1.80563674,14.0374342 1.88977035,14.0244906 L4.58851775,13.5714635 C4.93152401,13.5132171 5.20981211,13.2608163 5.29394572,12.9242818 C5.53340292,11.9729248 5.90229645,11.0539269 6.4006263,10.206119 C6.57536534,9.90841545 6.5559499,9.53952192 6.35532359,9.26123382 L4.74384134,6.99609812 C4.69853862,6.93137996 4.70501044,6.83430271 4.76325678,6.77605637 L6.69185804,4.84745511 C6.73716075,4.8021524 6.78246347,4.79568058 6.81482255,4.79568058 C6.85365344,4.79568058 6.88601253,4.80862422 6.91189979,4.82803967 L9.14467641,6.42010647 C9.42943633,6.62073278 9.80480167,6.63367641 10.1025052,6.45893737 C10.9438413,5.9541357 11.8563674,5.56582672 12.8077244,5.3198977 C13.1377871,5.22929228 13.3901879,4.95747599 13.4484342,4.62094154 L13.914405,1.88336326 C13.9273486,1.79922965 13.9985386,1.7409833 14.0826722,1.7409833 L16.8073069,1.7409833 C16.8914405,1.7409833 16.9626305,1.79922965 16.9755741,1.88336326 L17.4286013,4.58211065 C17.4868476,4.92511691 17.7392484,5.20340501 18.0757829,5.28753862 C19.0530271,5.53346764 19.9849687,5.9153048 20.8521921,6.42657829 C21.1498956,6.60131733 21.5187891,6.5883737 21.8035491,6.38774739 L24.0363257,4.78273695 C24.0686848,4.7633215 24.1010438,4.75037787 24.1334029,4.75037787 C24.1592902,4.75037787 24.2110647,4.75684969 24.2563674,4.8021524 L26.1849687,6.73075365 C26.243215,6.789 26.2496868,6.87960543 26.2043841,6.95079541 L24.6058455,9.19651566 C24.4052192,9.47480376 24.3922756,9.8501691 24.5670146,10.1478727 C25.0718163,10.9956806 25.4471816,11.9082067 25.6931106,12.8595637 C25.7772443,13.1960981 26.0555324,13.448499 26.3920668,13.5002735 L29.1102296,13.9597724 C29.1943633,13.9727161 29.2526096,14.0439061 29.2526096,14.1280397 L29.2526096,16.8526743 L29.2461378,16.8526743 L29.2461378,16.8526743 Z" id="Shape"></path>
                <path d="M15.4935282,8.80173486 C11.8045929,8.80173486 8.80814196,11.7981858 8.80814196,15.4871211 C8.80814196,19.1760564 11.8045929,22.1725073 15.4935282,22.1725073 C19.1824635,22.1725073 22.1789144,19.1760564 22.1789144,15.4871211 C22.1789144,11.7981858 19.1824635,8.80173486 15.4935282,8.80173486 Z M15.4935282,20.4251169 C12.7688935,20.4251169 10.5555324,18.2117557 10.5555324,15.4871211 C10.5555324,12.7624864 12.7688935,10.5491253 15.4935282,10.5491253 C18.2181628,10.5491253 20.431524,12.7624864 20.431524,15.4871211 C20.431524,18.2117557 18.2181628,20.4251169 15.4935282,20.4251169 Z" id="Shape"></path>
            </g>
        </g>
    </g>
</svg>