<?xml version="1.0" encoding="utf-8"?>
<!-- Generator: Adobe Illustrator 21.0.2, SVG Export Plug-In . SVG Version: 6.00 Build 0)  -->
<svg version="1.1" id="Layer_1" xmlns="http://www.w3.org/2000/svg" xmlns:xlink="http://www.w3.org/1999/xlink" x="0px" y="0px"
	 viewBox="0 0 40 40" style="enable-background:new 0 0 40 40;" xml:space="preserve">
<style type="text/css">
	.st0{fill:#FFFFFF;}
</style>
<g>
	<defs>
		<rect id="SVGID_11_" x="-358.8" y="-705.7" width="832.6" height="1481"/>
	</defs>
	<clipPath id="SVGID_1_">
		<use xlink:href="#SVGID_11_"  style="overflow:visible;"/>
	</clipPath>
</g>
<g>
	<path class="st0" d="M34.6,17l-2.2-0.4c0,0,0,0,0,0c-0.2-0.7-0.5-1.4-0.9-2.1c0,0,0,0,0-0.1l1.3-1.8c0.6-0.8,0.5-1.9-0.2-2.5
		l-1.9-1.9c-0.4-0.4-0.8-0.6-1.3-0.6c-0.5,0-0.9,0.1-1.3,0.4l-1.8,1.3c0,0,0,0-0.1,0c-0.7-0.4-1.4-0.7-2.2-0.9c0,0,0,0,0,0L23.5,6
		c-0.2-1-1-1.7-2-1.7h-2.8c-1,0-1.8,0.7-2,1.7l-0.4,2.2c0,0,0,0,0,0c-0.7,0.2-1.4,0.5-2.1,0.9c0,0,0,0-0.1,0l-1.8-1.3
		c-0.2-0.1-0.4-0.2-0.6-0.3c-0.7-0.2-1.5,0-2,0.5l-2,2c-0.7,0.7-0.8,1.8-0.2,2.5l1.3,1.9c0,0,0,0,0,0.1c-0.4,0.7-0.6,1.4-0.9,2.1
		c0,0,0,0,0,0l-2.2,0.4c-1,0.2-1.7,1-1.7,2v2.8c0,1,0.7,1.8,1.7,2l2.2,0.4c0,0,0,0,0,0C8.3,25,8.6,25.7,9,26.3c0,0,0,0,0,0.1
		l-1.3,1.8c-0.6,0.8-0.5,1.9,0.2,2.5l1.9,1.9c0.4,0.4,0.8,0.6,1.3,0.6c0.5,0,0.9-0.1,1.3-0.4l1.9-1.3c0,0,0,0,0.1,0
		c0.7,0.3,1.3,0.6,2.1,0.8c0,0,0,0,0,0l0.4,2.2c0.2,1,1,1.7,2,1.7h2.8c1,0,1.8-0.7,2-1.7l0.4-2.2c0,0,0,0,0,0
		c0.7-0.2,1.4-0.5,2.1-0.9c0,0,0,0,0.1,0l1.8,1.3c0.4,0.3,0.9,0.4,1.5,0.3c0.4-0.1,0.8-0.3,1.1-0.6l1.9-1.9c0.7-0.7,0.8-1.8,0.2-2.5
		l-1.3-1.8c0,0,0,0,0-0.1c0.4-0.7,0.7-1.4,0.9-2.1c0,0,0,0,0,0l2.2-0.4c1-0.2,1.7-1,1.7-2V19C36.2,18,35.5,17.2,34.6,17z M20.2,26.8
		c-3.5,0-6.4-2.9-6.4-6.4s2.9-6.4,6.4-6.4s6.4,2.9,6.4,6.4S23.7,26.8,20.2,26.8z"/>
	<circle class="st0" cx="20.2" cy="20.4" r="4.9"/>
</g>
</svg>
