<?xml version="1.0" encoding="utf-8"?>
<!-- Generator: Adobe Illustrator 21.0.2, SVG Export Plug-In . SVG Version: 6.00 Build 0)  -->
<svg version="1.1" id="Layer_1" xmlns="http://www.w3.org/2000/svg" xmlns:xlink="http://www.w3.org/1999/xlink" x="0px" y="0px"
	 viewBox="0 0 40 40" style="enable-background:new 0 0 40 40;" xml:space="preserve">
<style type="text/css">
	.st0{fill:#FFFFFF;}
</style>
<path class="st0" d="M30.1,10.6c0,0.4,0.3,0.7,0.7,0.7h4.7c0,0-0.1-0.1-0.1-0.1l-5.3-5.3V10.6z"/>
<path class="st0" d="M30.8,13.5c-1.6,0-2.9-1.3-2.9-2.9V5.6H5.2c-0.5,0-0.9,0.4-0.9,1l0.3,23.8c0,0.5,0.4,0.9,0.9,0.9h16.9
	c0.2,0,0.3,0,0.5,0.1l7.2,4c0.3,0.2,0.6,0,0.6-0.4v-2.7c0-0.5,0.4-0.9,0.9-0.9h3.1c0.5,0,0.9-0.4,0.9-0.9V13.5H30.8z M9.7,11.3h11.5
	c0.5,0,0.8,0.4,0.8,0.8c0,0.5-0.4,0.8-0.8,0.8H9.7c-0.5,0-0.8-0.4-0.8-0.8C8.9,11.7,9.2,11.3,9.7,11.3z M29,22.7
	c0,0.4-0.3,0.7-0.7,0.7H9.6c-0.4,0-0.7-0.3-0.7-0.7v-0.2c0-0.4,0.3-0.7,0.7-0.7h18.7c0.4,0,0.7,0.3,0.7,0.7V22.7z M29,17.8
	c0,0.4-0.3,0.7-0.7,0.7H9.6c-0.4,0-0.7-0.3-0.7-0.7v-0.2c0-0.4,0.3-0.7,0.7-0.7h18.7c0.4,0,0.7,0.3,0.7,0.7V17.8z"/>
</svg>
