<?xml version="1.0" encoding="UTF-8" standalone="no"?>
<svg width="39px" height="30px" viewBox="0 0 39 30" version="1.1" xmlns="http://www.w3.org/2000/svg" xmlns:xlink="http://www.w3.org/1999/xlink">
    <!-- Generator: Sketch 44.1 (41455) - http://www.bohemiancoding.com/sketch -->
    <title>002-blog</title>
    <desc>Created with Sketch.</desc>
    <defs></defs>
    <g id="Page-1" stroke="none" stroke-width="1" fill="none" fill-rule="evenodd">
        <g id="HOME" transform="translate(-246.000000, -609.000000)" fill-rule="nonzero" fill="#FFFFFF">
            <g id="002-blog" transform="translate(246.000000, 609.000000)">
                <path d="M30.8758125,5.76791457 L24.7154121,0.0303768844 L0,0.0303768844 L0,25.7592211 L17.4915762,25.7580151 L26.0008125,29.9696985 L25.9995937,25.7592211 L30.8758125,25.7592211 L30.8758125,5.76791457 Z M25.1866875,2.6791206 L28.5096855,5.77311558 L25.1866875,5.77311558 L25.1866875,2.6791206 Z M29.25,24.1515075 L24.3737813,24.1515075 L24.375,27.3667839 L17.8754063,24.1490955 L1.62520313,24.1515075 L1.62520313,1.63854271 L23.5633125,1.63854271 L23.5633125,7.38135678 L29.25,7.38135678 L29.25,24.1515075 Z" id="Shape"></path>
                <path d="M39,3.34454774 C39,1.56791457 37.5455742,0.128065327 35.7508125,0.128065327 C33.954832,0.128065327 32.4991875,1.56791457 32.4991875,3.34454774 L32.4991875,24.2480653 L33.6286641,24.2480653 L32.4991875,27.7330402 L35.7508125,29.8777387 L39,27.7331156 L37.8717422,24.2481407 L39,24.2481407 L39,3.34454774 Z M35.7508125,27.9439447 L34.4225273,27.0676884 L35.3353711,24.2481407 L36.164959,24.2481407 L37.0778789,27.0676884 L35.7508125,27.9439447 Z M37.3741875,22.6404271 L34.125,22.6404271 L34.125,3.34454774 C34.125,2.45766332 34.8533555,1.73630653 35.7508125,1.73630653 C36.645832,1.73630653 37.3741875,2.45766332 37.3741875,3.34454774 L37.3741875,22.6404271 Z" id="Shape"></path>
                <path d="M25.1866875,16.9153266 L5.68729687,16.9153266 C5.23856836,16.9153266 4.875,17.2745729 4.875,17.7185427 C4.875,18.1637186 5.23856836,18.5229648 5.68729687,18.5229648 L25.1866875,18.5229648 C25.6365586,18.5229648 26.0008125,18.1637186 26.0008125,17.7185427 C26.0008125,17.2745729 25.6365586,16.9153266 25.1866875,16.9153266 Z" id="Shape"></path>
                <path d="M25.1866875,12.090603 L5.68729687,12.090603 C5.23856836,12.090603 4.875,12.4503769 4.875,12.8950251 C4.875,13.3390704 5.23856836,13.6988442 5.68729687,13.6988442 L25.1866875,13.6988442 C25.6365586,13.6988442 26.0008125,13.3390704 26.0008125,12.8950251 C26.0008125,12.4504523 25.6365586,12.090603 25.1866875,12.090603 Z" id="Shape"></path>
                <path d="M16.2502031,7.26648241 L5.68729688,7.26648241 C5.23856836,7.26648241 4.875,7.62625628 4.875,8.07090452 C4.875,8.51494975 5.23856836,8.87472362 5.68729688,8.87472362 L16.2502031,8.87472362 C16.6989316,8.87472362 17.0625,8.51494975 17.0625,8.07090452 C17.0625,7.62640704 16.6989316,7.26648241 16.2502031,7.26648241 Z" id="Shape"></path>
            </g>
        </g>
    </g>
</svg>