<?xml version="1.0" encoding="UTF-8" standalone="no"?>
<svg width="32px" height="30px" viewBox="0 0 32 30" version="1.1" xmlns="http://www.w3.org/2000/svg" xmlns:xlink="http://www.w3.org/1999/xlink">
    <!-- Generator: Sketch 44.1 (41455) - http://www.bohemiancoding.com/sketch -->
    <title>003-house-outline</title>
    <desc>Created with Sketch.</desc>
    <defs></defs>
    <g id="Page-1" stroke="none" stroke-width="1" fill="none" fill-rule="evenodd">
        <g id="HOME" transform="translate(-24.000000, -607.000000)" fill-rule="nonzero" fill="#FFFFFF">
            <g id="003-house-outline" transform="translate(24.000000, 607.000000)">
                <path d="M26.724915,14.7005729 C26.2051765,14.7005729 25.8026667,15.0996875 25.8026667,15.6198958 L25.8026667,28.1774479 L19.2627974,28.1774479 L19.2627974,23.0496875 C19.2627974,22.5686458 18.8603399,22.148125 18.3738039,22.148125 L13.6451765,22.148125 C13.1250196,22.148125 12.7060915,22.5685937 12.7060915,23.0496875 L12.7060915,28.1774479 L6.18269281,28.1774479 L6.18269281,16.0368229 C6.18269281,15.5521354 5.78060131,15.1495312 5.26044444,15.1495312 C4.77427451,15.1495312 4.37181699,15.5521354 4.37181699,16.0368229 L4.37181699,29.0968229 C4.37181699,29.5814583 4.77427451,29.9841146 5.26044444,29.9841146 L13.6451765,29.9841146 C14.1313464,29.9841146 14.5338039,29.5814583 14.5338039,29.0968229 L14.5338039,23.9690104 L17.4515033,23.9690104 L17.4515033,29.0968229 C17.4515033,29.5814583 17.8539608,29.9841146 18.3738039,29.9841146 L26.724915,29.9841146 C27.2111373,29.9841146 27.6135425,29.5814583 27.6135425,29.0968229 L27.6135425,15.6199479 C27.6135425,15.0997396 27.2111373,14.7005729 26.724915,14.7005729 Z" id="Shape"></path>
                <path d="M31.738719,15.4168229 L24.4611242,8.13671875 L24.4611242,3.17286458 C24.4611242,2.65614583 24.0418301,2.25708333 23.5220392,2.25708333 C23.0355033,2.25708333 22.633098,2.65619792 22.633098,3.17286458 L22.633098,6.31583333 L16.6298562,0.300729167 C16.4459085,0.115416667 16.2273987,0.015625 16.0095163,0.015625 C15.7580131,0.015625 15.539817,0.118958333 15.3555556,0.300729167 L0.280313725,15.3170313 C-0.0813594771,15.6769271 -0.10530719,16.2542188 0.280313725,16.585625 C0.615529412,16.9704688 1.19294118,16.9455208 1.55461438,16.585625 L16.0095163,2.22140625 L30.4307974,16.7210417 C30.5810196,16.8707292 30.799634,16.95625 31.0847582,16.95625 C31.3362614,16.95625 31.5540915,16.8707292 31.738719,16.7210417 C32.0742484,16.3860938 32.0992941,15.7803125 31.738719,15.4168229 Z" id="Shape"></path>
            </g>
        </g>
    </g>
</svg>