<?xml version="1.0" encoding="UTF-8" standalone="no"?>
<svg width="31px" height="32px" viewBox="0 0 31 32" version="1.1" xmlns="http://www.w3.org/2000/svg" xmlns:xlink="http://www.w3.org/1999/xlink">
    <!-- Generator: Sketch 44.1 (41455) - http://www.bohemiancoding.com/sketch -->
    <title>001-information</title>
    <desc>Created with Sketch.</desc>
    <defs></defs>
    <g id="Page-1" stroke="none" stroke-width="1" fill="none" fill-rule="evenodd">
        <g id="HOME" transform="translate(-93.000000, -606.000000)" fill-rule="nonzero" fill="#FFFFFF">
            <g id="001-information" transform="translate(94.000000, 607.000000)">
                <path d="M14.5,0 C6.51185569,0 0.013203252,6.44766082 0.013203252,14.3729825 C0.013203252,18.0087135 1.37596748,21.459883 3.85664634,24.1229825 L3.04871341,29.2891813 C3.01582317,29.4997661 3.10488618,29.7107018 3.27918089,29.8351462 C3.37802846,29.905731 3.49473577,29.9415789 3.61203252,29.9415789 C3.70162602,29.9415789 3.79157317,29.9207018 3.87415244,29.8782456 L8.54486179,27.4784795 C10.4207256,28.3197661 12.4226098,28.7460234 14.5,28.7460234 C22.4880264,28.7460234 28.9869146,22.2983626 28.9869146,14.3730409 C28.9869146,6.44766082 22.4881443,0 14.5,0 Z M14.5,27.6146784 C12.4975264,27.6146784 10.5716789,27.1850292 8.77580081,26.3377778 C8.61482724,26.2617544 8.42721138,26.2649708 8.2688313,26.3463158 L4.34770122,28.3609357 L5.02613618,24.0230994 C5.05342683,23.8487135 4.99707724,23.6718129 4.87394512,23.5445029 C2.47472561,21.0665497 1.15339837,17.8092982 1.15339837,14.3728655 C1.15339837,7.07146199 7.14066057,1.13122807 14.5,1.13122807 C21.8593394,1.13122807 27.8466606,7.07140351 27.8466606,14.372924 C27.8466606,21.6744444 21.8593984,27.6146784 14.5,27.6146784 Z" id="Shape" stroke="#FFFFFF"></path>
                <path d="M14.5,4.13497076 C12.8356829,4.13497076 11.4816423,5.47836257 11.4816423,7.12959064 C11.4816423,8.78081871 12.8356829,10.1242105 14.5,10.1242105 C16.164435,10.1242105 17.5183577,8.78081871 17.5183577,7.12959064 C17.5183577,5.47824561 16.1643171,4.13497076 14.5,4.13497076 Z M14.5,8.99298246 C13.4643699,8.99298246 12.6218374,8.15707602 12.6218374,7.12959064 C12.6218374,6.10210526 13.4643699,5.26619883 14.5,5.26619883 C15.535689,5.26619883 16.3781626,6.10210526 16.3781626,7.12959064 C16.3781626,8.15707602 15.5356301,8.99298246 14.5,8.99298246 Z" id="Shape"></path>
                <path d="M17.8454919,20.9204678 L17.1963516,20.9204678 L17.1963516,11.6460819 C17.1963516,11.3336842 16.9410691,11.0804678 16.6262541,11.0804678 L11.154685,11.0804678 C10.839811,11.0804678 10.5845874,11.3337427 10.5845874,11.6460819 L10.5845874,13.5257895 C10.5845874,13.8381871 10.8398699,14.0914035 11.154685,14.0914035 L11.8038252,14.0914035 L11.8038252,20.9204678 L11.154685,20.9204678 C10.839811,20.9204678 10.5845874,21.1737427 10.5845874,21.4860819 L10.5845874,23.3657895 C10.5845874,23.6782456 10.8398699,23.931462 11.154685,23.931462 L17.8455508,23.931462 C18.1604248,23.931462 18.4156484,23.6781871 18.4156484,23.365848 L18.4156484,21.4861404 C18.4155894,21.1737427 18.1603069,20.9204678 17.8454919,20.9204678 Z M17.2753354,22.8002339 L11.7246646,22.8002339 L11.7246646,22.0516959 L12.3738049,22.0516959 C12.6886789,22.0516959 12.9439024,21.7984211 12.9439024,21.4860819 L12.9439024,13.5257895 C12.9439024,13.2133918 12.6886199,12.9601754 12.3738049,12.9601754 L11.7246646,12.9601754 L11.7246646,12.2117544 L16.0560976,12.2117544 L16.0560976,21.4861988 C16.0560976,21.7985965 16.3113801,22.0518129 16.6261951,22.0518129 L17.2753354,22.0518129 L17.2753354,22.8002339 Z" id="Shape"></path>
            </g>
        </g>
    </g>
</svg>