<?xml version="1.0" encoding="utf-8"?>
<!-- Generator: Adobe Illustrator 21.0.2, SVG Export Plug-In . SVG Version: 6.00 Build 0)  -->
<svg version="1.1" id="Layer_1" xmlns="http://www.w3.org/2000/svg" xmlns:xlink="http://www.w3.org/1999/xlink" x="0px" y="0px"
	 viewBox="0 0 40 40" style="enable-background:new 0 0 40 40;" xml:space="preserve">
<style type="text/css">
	.st0{fill:#FFFFFF;}
</style>
<path class="st0" d="M7.4,31.5l-0.6,6.1c0,0.4,0.4,0.7,0.7,0.5l6-2.9c0.4-0.2,0.4-0.7,0-0.9l-5.4-3.2c-0.3-0.2-0.7,0-0.8,0.3h0
	C7.4,31.4,7.4,31.5,7.4,31.5z"/>
<path class="st0" d="M19.4,2C9.8,2,1.9,9.8,1.9,19.5C1.9,29.1,9.8,37,19.4,37c9.7,0,17.5-7.8,17.5-17.5C36.9,9.8,29.1,2,19.4,2z
	 M19.5,8c1.8,0,3.3,1.5,3.3,3.3c0,1.8-1.5,3.3-3.3,3.3c-1.8,0-3.3-1.5-3.3-3.3C16.2,9.4,17.7,8,19.5,8z M23.8,29
	c0,0.3-0.3,0.6-0.6,0.6h-7.3c-0.3,0-0.6-0.3-0.6-0.6v-2.1c0-0.3,0.3-0.6,0.6-0.6h0.7v-7.5h-0.7c-0.3,0-0.6-0.3-0.6-0.6v-2.1
	c0-0.3,0.3-0.6,0.6-0.6h6c0.3,0,0.6,0.3,0.6,0.6v10.1h0.7c0.3,0,0.6,0.3,0.6,0.6V29z"/>
</svg>
