<?xml version="1.0" encoding="UTF-8" standalone="no"?>
<svg width="34px" height="29px" viewBox="0 0 34 29" version="1.1" xmlns="http://www.w3.org/2000/svg" xmlns:xlink="http://www.w3.org/1999/xlink">
    <!-- Generator: Sketch 44.1 (41455) - http://www.bohemiancoding.com/sketch -->
    <title>Page 1 Copy 2</title>
    <desc>Created with Sketch.</desc>
    <defs></defs>
    <g id="Page-1" stroke="none" stroke-width="1" fill="none" fill-rule="evenodd">
        <g id="HOME" transform="translate(-294.000000, -501.000000)" fill="#F44E4E">
            <g id="Page-1-Copy-2" transform="translate(294.000000, 501.587542)">
                <path d="M16.6359528,8.79243066 C16.5948485,8.1546051 16.5153723,7.57807863 16.527371,7.00361162 C16.6104111,3.03685757 19.781144,-0.0547489451 23.6834383,0.000735215658 C25.5561784,0.0273869959 27.1347733,0.763945287 28.4773156,2.06249271 C28.6354364,2.21537701 28.7750247,2.24190765 28.9756754,2.1959939 C30.3318795,1.88537951 31.6173985,1.39038327 32.8284307,0.694408369 C32.9000662,0.653219254 32.9755033,0.618935373 33.0724429,0.604519183 C32.5686183,2.22167652 31.5840161,3.46437635 30.2190209,4.42602104 C31.5275868,4.28840094 32.7654675,3.92145438 34.0001407,3.45928828 C33.9521461,3.53524586 33.906765,3.6130206 33.8556817,3.68667643 C33.0035398,4.91653494 31.9875747,5.98551362 30.8063609,6.88816096 C30.6376669,7.01705866 30.5789805,7.14922726 30.5852768,7.36304722 C30.792105,14.3638642 27.2302874,21.7865061 20.8133845,25.640717 C18.3914388,27.0955408 15.7658724,27.9322855 12.9744632,28.2322392 C9.70227634,28.5839215 6.51835681,28.2146732 3.44028677,27.0000789 C2.27641753,26.5406991 1.1673144,25.9687762 0.103235927,25.3050257 C0.0687843517,25.2835831 0.0380155312,25.2560833 0,25.1924825 C3.74785618,25.5148479 7.12458573,24.5517495 10.1263871,22.2267451 C8.02294025,22.051449 6.27529501,21.1922926 4.92811962,19.5358844 C4.38307194,18.8657133 3.97713735,18.1161925 3.70663309,17.2546132 C4.23813773,17.2807804 4.73447801,17.3368703 5.22844232,17.3205158 C5.71361553,17.3044036 6.19653158,17.2147567 6.6896643,17.109361 C5.11867247,16.6507081 3.78480252,15.8492163 2.76931265,14.5407351 C1.75037761,13.2280138 1.22528809,11.743025 1.23384158,9.99309336 C2.21012794,10.471614 3.18213755,10.8177237 4.2569079,10.8144528 C2.82217799,9.7027101 1.84363446,8.28580454 1.45563845,6.48911112 C1.06704844,4.68951023 1.3136742,2.97725449 2.22759133,1.32217894 C6.02961964,5.87515102 10.8111419,8.37593602 16.6359528,8.79243066" id="Fill-1"></path>
            </g>
        </g>
    </g>
</svg>