<?xml version="1.0" encoding="utf-8"?>
<!-- Generator: Adobe Illustrator 21.0.2, SVG Export Plug-In . SVG Version: 6.00 Build 0)  -->
<svg version="1.1" id="Layer_1" xmlns="http://www.w3.org/2000/svg" xmlns:xlink="http://www.w3.org/1999/xlink" x="0px" y="0px"
	 viewBox="0 0 34 29" style="enable-background:new 0 0 34 29;" xml:space="preserve">
<style type="text/css">
	.st0{fill:#FFFFFF;}
</style>
<g id="Page-1">
	<g id="HOME" transform="translate(-294.000000, -501.000000)">
		<g id="Page-1-Copy-2" transform="translate(294.000000, 501.587542)">
			<path id="Fill-1" class="st0" d="M16.6,8.8c0-0.6-0.1-1.2-0.1-1.8c0.1-4,3.3-7.1,7.2-7c1.9,0,3.5,0.8,4.8,2.1
				c0.2,0.2,0.3,0.2,0.5,0.1c1.4-0.3,2.6-0.8,3.9-1.5c0.1,0,0.1-0.1,0.2-0.1c-0.5,1.6-1.5,2.9-2.9,3.8c1.3-0.1,2.5-0.5,3.8-1
				c0,0.1-0.1,0.2-0.1,0.2C33,4.9,32,6,30.8,6.9c-0.2,0.1-0.2,0.3-0.2,0.5c0.2,7-3.4,14.4-9.8,18.3c-2.4,1.5-5,2.3-7.8,2.6
				c-3.3,0.4-6.5,0-9.5-1.2c-1.2-0.5-2.3-1-3.3-1.7c0,0-0.1,0-0.1-0.1c3.7,0.3,7.1-0.6,10.1-3c-2.1-0.2-3.9-1-5.2-2.7
				c-0.5-0.7-1-1.4-1.2-2.3c0.5,0,1,0.1,1.5,0.1c0.5,0,1-0.1,1.5-0.2c-1.6-0.5-2.9-1.3-3.9-2.6c-1-1.3-1.5-2.8-1.5-4.5
				c1,0.5,1.9,0.8,3,0.8C2.8,9.7,1.8,8.3,1.5,6.5C1.1,4.7,1.3,3,2.2,1.3C6,5.9,10.8,8.4,16.6,8.8"/>
		</g>
	</g>
</g>
</svg>
